<svg viewBox="0 0 1271.666748046875 400.0000305175781" xmlns="http://www.w3.org/2000/svg"><g><g><g><g><g><line x1="51.5625" y1="377" x2="46.5625" y2="377" style="visibility: inherit;" fill="rgb(0, 0, 0)" stroke="rgb(204, 204, 204)" stroke-width="1px"></line><line x1="51.5625" y1="345.58333333333326" x2="46.5625" y2="345.58333333333326" style="visibility: inherit;" fill="rgb(0, 0, 0)" stroke="rgb(204, 204, 204)" stroke-width="1px"></line><line x1="51.5625" y1="314.16666666666674" x2="46.5625" y2="314.16666666666674" style="visibility: inherit;" fill="rgb(0, 0, 0)" stroke="rgb(204, 204, 204)" stroke-width="1px"></line><line x1="51.5625" y1="282.75000000000006" x2="46.5625" y2="282.75000000000006" style="visibility: inherit;" fill="rgb(0, 0, 0)" stroke="rgb(204, 204, 204)" stroke-width="1px"></line><line x1="51.5625" y1="251.33333333333337" x2="46.5625" y2="251.33333333333337" style="visibility: inherit;" fill="rgb(0, 0, 0)" stroke="rgb(204, 204, 204)" stroke-width="1px"></line><line x1="51.5625" y1="219.91666666666663" x2="46.5625" y2="219.91666666666663" style="visibility: inherit;" fill="rgb(0, 0, 0)" stroke="rgb(204, 204, 204)" stroke-width="1px"></line><line x1="51.5625" y1="188.49999999999991" x2="46.5625" y2="188.49999999999991" style="visibility: inherit;" fill="rgb(0, 0, 0)" stroke="rgb(204, 204, 204)" stroke-width="1px"></line><line x1="51.5625" y1="157.08333333333337" x2="46.5625" y2="157.08333333333337" style="visibility: inherit;" fill="rgb(0, 0, 0)" stroke="rgb(204, 204, 204)" stroke-width="1px"></line><line x1="51.5625" y1="125.66666666666669" x2="46.5625" y2="125.66666666666669" style="visibility: inherit;" fill="rgb(0, 0, 0)" stroke="rgb(204, 204, 204)" stroke-width="1px"></line><line x1="51.5625" y1="94.24999999999996" x2="46.5625" y2="94.24999999999996" style="visibility: inherit;" fill="rgb(0, 0, 0)" stroke="rgb(204, 204, 204)" stroke-width="1px"></line><line x1="51.5625" y1="62.83333333333328" x2="46.5625" y2="62.83333333333328" style="visibility: inherit;" fill="rgb(0, 0, 0)" stroke="rgb(204, 204, 204)" stroke-width="1px"></line><line x1="51.5625" y1="31.416666666666554" x2="46.5625" y2="31.416666666666554" style="visibility: inherit;" fill="rgb(0, 0, 0)" stroke="rgb(204, 204, 204)" stroke-width="1px"></line><line x1="51.5625" y1="0" x2="46.5625" y2="0" style="visibility: inherit;" fill="rgb(0, 0, 0)" stroke="rgb(204, 204, 204)" stroke-width="1px"></line></g><g transform="translate(41.5625, 0)"><text x="0" y="377" dx="0em" dy="0.3em" style="text-anchor: end; visibility: hidden; font-family: Roboto, sans-serif; font-size: 12px; font-weight: 200;" fill="rgb(33, 33, 33)" stroke="none" stroke-width="1px">1.05</text><text x="0" y="345.58333333333326" dx="0em" dy="0.3em" style="text-anchor: end; visibility: inherit; font-family: Roboto, sans-serif; font-size: 12px; font-weight: 200;" fill="rgb(33, 33, 33)" stroke="none" stroke-width="1px">1.1</text><text x="0" y="314.16666666666674" dx="0em" dy="0.3em" style="text-anchor: end; visibility: inherit; font-family: Roboto, sans-serif; font-size: 12px; font-weight: 200;" fill="rgb(33, 33, 33)" stroke="none" stroke-width="1px">1.15</text><text x="0" y="282.75000000000006" dx="0em" dy="0.3em" style="text-anchor: end; visibility: inherit; font-family: Roboto, sans-serif; font-size: 12px; font-weight: 200;" fill="rgb(33, 33, 33)" stroke="none" stroke-width="1px">1.2</text><text x="0" y="251.33333333333337" dx="0em" dy="0.3em" style="text-anchor: end; visibility: inherit; font-family: Roboto, sans-serif; font-size: 12px; font-weight: 200;" fill="rgb(33, 33, 33)" stroke="none" stroke-width="1px">1.25</text><text x="0" y="219.91666666666663" dx="0em" dy="0.3em" style="text-anchor: end; visibility: inherit; font-family: Roboto, sans-serif; font-size: 12px; font-weight: 200;" fill="rgb(33, 33, 33)" stroke="none" stroke-width="1px">1.3</text><text x="0" y="188.49999999999991" dx="0em" dy="0.3em" style="text-anchor: end; visibility: inherit; font-family: Roboto, sans-serif; font-size: 12px; font-weight: 200;" fill="rgb(33, 33, 33)" stroke="none" stroke-width="1px">1.35</text><text x="0" y="157.08333333333337" dx="0em" dy="0.3em" style="text-anchor: end; visibility: inherit; font-family: Roboto, sans-serif; font-size: 12px; font-weight: 200;" fill="rgb(33, 33, 33)" stroke="none" stroke-width="1px">1.4</text><text x="0" y="125.66666666666669" dx="0em" dy="0.3em" style="text-anchor: end; visibility: inherit; font-family: Roboto, sans-serif; font-size: 12px; font-weight: 200;" fill="rgb(33, 33, 33)" stroke="none" stroke-width="1px">1.45</text><text x="0" y="94.24999999999996" dx="0em" dy="0.3em" style="text-anchor: end; visibility: inherit; font-family: Roboto, sans-serif; font-size: 12px; font-weight: 200;" fill="rgb(33, 33, 33)" stroke="none" stroke-width="1px">1.5</text><text x="0" y="62.83333333333328" dx="0em" dy="0.3em" style="text-anchor: end; visibility: inherit; font-family: Roboto, sans-serif; font-size: 12px; font-weight: 200;" fill="rgb(33, 33, 33)" stroke="none" stroke-width="1px">1.55</text><text x="0" y="31.416666666666554" dx="0em" dy="0.3em" style="text-anchor: end; visibility: inherit; font-family: Roboto, sans-serif; font-size: 12px; font-weight: 200;" fill="rgb(33, 33, 33)" stroke="none" stroke-width="1px">1.6</text><text x="0" y="0" dx="0em" dy="0.3em" style="text-anchor: end; visibility: hidden; font-family: Roboto, sans-serif; font-size: 12px; font-weight: 200;" fill="rgb(33, 33, 33)" stroke="none" stroke-width="1px">1.65</text></g><line x1="51.5625" y1="0" x2="51.5625" y2="377" fill="rgb(0, 0, 0)" stroke="rgb(204, 204, 204)" stroke-width="1px"></line></g></g><g transform="translate(51, 0)" clip-path="url(#clip_0)"><clipPath id="clip_0"><rect width="1220" height="376"></rect></clipPath><g><g><g><line x1="0" y1="0" x2="0" y2="377" fill="rgb(0, 0, 0)" stroke="rgb(66, 66, 66)" stroke-width="1px" opacity="0.25"></line><line x1="122.01075000000002" y1="0" x2="122.01075000000002" y2="377" fill="rgb(0, 0, 0)" stroke="rgb(66, 66, 66)" stroke-width="1px" opacity="0.25"></line><line x1="244.02150000000003" y1="0" x2="244.02150000000003" y2="377" fill="rgb(0, 0, 0)" stroke="rgb(66, 66, 66)" stroke-width="1px" opacity="0.25"></line><line x1="366.03225000000003" y1="0" x2="366.03225000000003" y2="377" fill="rgb(0, 0, 0)" stroke="rgb(66, 66, 66)" stroke-width="1px" opacity="0.25"></line><line x1="488.04300000000006" y1="0" x2="488.04300000000006" y2="377" fill="rgb(0, 0, 0)" stroke="rgb(66, 66, 66)" stroke-width="1px" opacity="0.25"></line><line x1="610.05375" y1="0" x2="610.05375" y2="377" fill="rgb(0, 0, 0)" stroke="rgb(66, 66, 66)" stroke-width="1px" opacity="0.25"></line><line x1="732.0645000000001" y1="0" x2="732.0645000000001" y2="377" fill="rgb(0, 0, 0)" stroke="rgb(66, 66, 66)" stroke-width="1px" opacity="0.25"></line><line x1="854.07525" y1="0" x2="854.07525" y2="377" fill="rgb(0, 0, 0)" stroke="rgb(66, 66, 66)" stroke-width="1px" opacity="0.25"></line><line x1="976.0860000000001" y1="0" x2="976.0860000000001" y2="377" fill="rgb(0, 0, 0)" stroke="rgb(66, 66, 66)" stroke-width="1px" opacity="0.25"></line><line x1="1098.0967500000002" y1="0" x2="1098.0967500000002" y2="377" fill="rgb(0, 0, 0)" stroke="rgb(66, 66, 66)" stroke-width="1px" opacity="0.25"></line><line x1="1220.1075" y1="0" x2="1220.1075" y2="377" fill="rgb(0, 0, 0)" stroke="rgb(66, 66, 66)" stroke-width="1px" opacity="0.25"></line></g><g><line x1="0" y1="377" x2="1220.1075" y2="377" fill="rgb(0, 0, 0)" stroke="rgb(66, 66, 66)" stroke-width="1px" opacity="0.25"></line><line x1="0" y1="345.58333333333326" x2="1220.1075" y2="345.58333333333326" fill="rgb(0, 0, 0)" stroke="rgb(66, 66, 66)" stroke-width="1px" opacity="0.25"></line><line x1="0" y1="314.16666666666674" x2="1220.1075" y2="314.16666666666674" fill="rgb(0, 0, 0)" stroke="rgb(66, 66, 66)" stroke-width="1px" opacity="0.25"></line><line x1="0" y1="282.75000000000006" x2="1220.1075" y2="282.75000000000006" fill="rgb(0, 0, 0)" stroke="rgb(66, 66, 66)" stroke-width="1px" opacity="0.25"></line><line x1="0" y1="251.33333333333337" x2="1220.1075" y2="251.33333333333337" fill="rgb(0, 0, 0)" stroke="rgb(66, 66, 66)" stroke-width="1px" opacity="0.25"></line><line x1="0" y1="219.91666666666663" x2="1220.1075" y2="219.91666666666663" fill="rgb(0, 0, 0)" stroke="rgb(66, 66, 66)" stroke-width="1px" opacity="0.25"></line><line x1="0" y1="188.49999999999991" x2="1220.1075" y2="188.49999999999991" fill="rgb(0, 0, 0)" stroke="rgb(66, 66, 66)" stroke-width="1px" opacity="0.25"></line><line x1="0" y1="157.08333333333337" x2="1220.1075" y2="157.08333333333337" fill="rgb(0, 0, 0)" stroke="rgb(66, 66, 66)" stroke-width="1px" opacity="0.25"></line><line x1="0" y1="125.66666666666669" x2="1220.1075" y2="125.66666666666669" fill="rgb(0, 0, 0)" stroke="rgb(66, 66, 66)" stroke-width="1px" opacity="0.25"></line><line x1="0" y1="94.24999999999996" x2="1220.1075" y2="94.24999999999996" fill="rgb(0, 0, 0)" stroke="rgb(66, 66, 66)" stroke-width="1px" opacity="0.25"></line><line x1="0" y1="62.83333333333328" x2="1220.1075" y2="62.83333333333328" fill="rgb(0, 0, 0)" stroke="rgb(66, 66, 66)" stroke-width="1px" opacity="0.25"></line><line x1="0" y1="31.416666666666554" x2="1220.1075" y2="31.416666666666554" fill="rgb(0, 0, 0)" stroke="rgb(66, 66, 66)" stroke-width="1px" opacity="0.25"></line><line x1="0" y1="0" x2="1220.1075" y2="0" fill="rgb(0, 0, 0)" stroke="rgb(66, 66, 66)" stroke-width="1px" opacity="0.25"></line></g></g></g><g><g><line x1="0" y1="1036.7500000000002" x2="1220.1075" y2="1036.7500000000002" fill="rgb(0, 0, 0)" stroke="rgb(153, 153, 153)" stroke-width="1.5px"></line></g></g><g><g><line x1="122.01075000000002" y1="0" x2="122.01075000000002" y2="377" fill="rgb(0, 0, 0)" stroke="rgb(153, 153, 153)" stroke-width="1.5px"></line></g></g><g><g><g><g><g><path stroke="rgb(255, 112, 67)" stroke-width="2px" d="M158.613975,-20.027763768446096L170.81505,35.12961238814329L183.01612500000002,83.1165884871116L195.21720000000002,117.84835529834042L207.41827500000002,144.9328614104484L219.61935,164.5950771114788L231.82042500000003,181.68860562296527L244.02150000000003,194.5270204692906L256.222575,210.23177774002662L268.42365,219.87866824870594L280.624725,229.1221828435915L292.8258,238.07790720463248L305.026875,245.50139231860425L317.22795,250.6577824812723L329.429025,257.37182544517214L341.6301,261.2356170402768L353.831175,266.1407816661969L366.03225000000003,266.3143549364199L378.23332500000004,265.17475789092117L390.43440000000004,264.46820855832937L402.63547500000004,265.75019533536374L414.83655000000005,278.7301030850729L427.037625,291.0388276512253L439.2387,300.04441591338247L451.439775,305.2612240019208L463.64085000000006,309.94683649546107L475.84192500000006,313.1370931669056L488.04300000000006,314.84810929368007L500.244075,317.02391331546886L512.44515,318.2708512970397L524.6462250000001,319.0791163534191L536.8473,320.78652509347836L549.0483750000001,321.70188134042564L561.24945,322.4004520049897L573.450525,322.6347932985905L585.6516,324.65453885278976L597.852675,327.61971959440035L610.05375,329.6085868750161L622.2548250000001,330.535761297641L634.4559,331.28549589788577L646.6569750000001,332.05514323372466L658.85805,332.63698643646023L671.0591250000001,332.4138620984498L683.2602,332.776295901865L695.461275,333.1943768351551L707.66235,333.9426423682439L719.863425,334.22001350563994L732.0645000000001,334.3379888175467L744.265575,334.60705767702376L756.4666500000001,333.72905271826806L768.667725,333.84183293329863L780.8688000000001,334.3081956570183L793.069875,334.79540518908715L805.2709500000001,334.30049858881443L817.4720250000001,334.3560789091988L829.6731000000001,334.2993335682316L841.874175,333.49842770645L854.07525,333.55529945541804L866.276325,334.0927718089982L878.4774,334.26131422561184L890.678475,333.79781957810184L902.87955,334.02166391419405L915.080625,334.46439180974374L927.2817000000001,333.9785400204116L939.4827750000001,334.51015486551853L951.6838500000001,333.8137064351651L963.8849250000001,333.6950006390023L976.0860000000001,334.45487277732735L988.2870750000001,334.68716515517093L1000.48815,335.28533748040104L1012.689225,334.8775619859467L1024.8903,334.85562875638226L1037.091375,334.31296332738697L1049.2924500000001,335.0557229681525L1061.493525,334.38897679033164L1073.6946,334.1384358114935L1085.895675,334.2179141505721" style="fill: none;" fill="none"></path></g></g></g></g><g opacity="0.2"><g><g><g><path stroke="rgb(255, 112, 67)" stroke-width="2px" d="M146.4129,-29.681414882342075L158.613975,36.78383835156753L170.81505,107.14308269818622L183.01612500000002,149.4998517433802L195.21720000000002,167.51533754666644L207.41827500000002,184.4223313331604L219.61935,193.59302608172095L231.82042500000003,207.07050331433612L244.02150000000003,213.66819926102954L256.222575,233.7034490505854L268.42365,234.31750524044037L280.624725,242.96934572855628L292.8258,251.50096662839258L305.026875,256.6313843727112L317.22795,258.390185713768L329.429025,267.4411851962408L341.6301,267.0307158231735L353.831175,273.4980802536011L366.03225000000003,266.57470532258355L378.23332500000004,263.46539982159936L390.43440000000004,263.4083985090256L402.63547500000004,267.67316031455994L414.83655000000005,298.1998724540075L427.037625,309.5018620093664L439.2387,313.5527752637863L451.439775,313.0864281256994L463.64085000000006,316.97525091965997L475.84192500000006,317.9224764108658L488.04300000000006,317.4146329164505L500.244075,320.28761891524L512.44515,320.1412581205368L524.6462250000001,320.29151388009393L536.8473,323.347638130188L549.0483750000001,323.07491568724316L561.24945,323.44830799102783L573.450525,322.9863052368164L585.6516,327.68415717283887L597.852675,332.06749069690704L610.05375,332.59188779195154L622.2548250000001,331.9265229304632L634.4559,332.4100977977117L646.6569750000001,333.2096142371496L658.85805,333.5097512404124L671.0591250000001,332.0791755914688L683.2602,333.319946606954L695.461275,333.82149823506677L707.66235,335.0650406678518L719.863425,334.63607021172845L732.0645000000001,334.5149517854055L744.265575,335.0106609662374L756.4666500000001,332.41204528013867L768.667725,334.0110032558441L780.8688000000001,335.007739742597L793.069875,335.52621948719025L805.2709500000001,333.5581386884054L817.4720250000001,334.43944938977563L829.6731000000001,334.2142155567805L841.874175,332.2970689137777L854.07525,333.6406070788702L866.276325,334.8989803393682L878.4774,334.51412785053253L890.678475,333.102577606837L902.87955,334.35743041833246L915.080625,335.12848365306854L927.2817000000001,333.2497623364131L939.4827750000001,335.3075771331787L951.6838500000001,332.7690337896347L963.8849250000001,333.5169419447581L976.0860000000001,335.594680984815L988.2870750000001,335.0356037219366L1000.48815,336.18259596824646L1012.689225,334.26589874426526L1024.8903,334.82272891203564L1037.091375,333.49896518389386L1049.2924500000001,336.16986242930096L1061.493525,333.3888575236003L1073.6946,333.7626243432363L1085.895675,334.3371316591899" style="fill: none;" fill="none"></path></g></g></g></g></g><g><g opacity="0.00406786"><span fill="rgb(0, 0, 0)" stroke="none" stroke-width="1px">Alt + Scroll to Zoom</span></g></g></g><g transform="translate(51, 377)" clip-path="url(#clip_1)"><clipPath id="clip_1"><rect width="1220" height="22"></rect></clipPath><g><g><line x1="0" y1="0" x2="0" y2="5" style="visibility: inherit;" fill="rgb(0, 0, 0)" stroke="rgb(204, 204, 204)" stroke-width="1px"></line><line x1="122.01075000000002" y1="0" x2="122.01075000000002" y2="5" style="visibility: inherit;" fill="rgb(0, 0, 0)" stroke="rgb(204, 204, 204)" stroke-width="1px"></line><line x1="244.02150000000003" y1="0" x2="244.02150000000003" y2="5" style="visibility: inherit;" fill="rgb(0, 0, 0)" stroke="rgb(204, 204, 204)" stroke-width="1px"></line><line x1="366.03225000000003" y1="0" x2="366.03225000000003" y2="5" style="visibility: inherit;" fill="rgb(0, 0, 0)" stroke="rgb(204, 204, 204)" stroke-width="1px"></line><line x1="488.04300000000006" y1="0" x2="488.04300000000006" y2="5" style="visibility: inherit;" fill="rgb(0, 0, 0)" stroke="rgb(204, 204, 204)" stroke-width="1px"></line><line x1="610.05375" y1="0" x2="610.05375" y2="5" style="visibility: inherit;" fill="rgb(0, 0, 0)" stroke="rgb(204, 204, 204)" stroke-width="1px"></line><line x1="732.0645000000001" y1="0" x2="732.0645000000001" y2="5" style="visibility: inherit;" fill="rgb(0, 0, 0)" stroke="rgb(204, 204, 204)" stroke-width="1px"></line><line x1="854.07525" y1="0" x2="854.07525" y2="5" style="visibility: inherit;" fill="rgb(0, 0, 0)" stroke="rgb(204, 204, 204)" stroke-width="1px"></line><line x1="976.0860000000001" y1="0" x2="976.0860000000001" y2="5" style="visibility: inherit;" fill="rgb(0, 0, 0)" stroke="rgb(204, 204, 204)" stroke-width="1px"></line><line x1="1098.0967500000002" y1="0" x2="1098.0967500000002" y2="5" style="visibility: inherit;" fill="rgb(0, 0, 0)" stroke="rgb(204, 204, 204)" stroke-width="1px"></line><line x1="1220.1075" y1="0" x2="1220.1075" y2="5" style="visibility: inherit;" fill="rgb(0, 0, 0)" stroke="rgb(204, 204, 204)" stroke-width="1px"></line></g><g transform="translate(0, 8)"><text x="0" y="0" dx="0em" dy="0.95em" style="text-anchor: middle; visibility: hidden; font-family: Roboto, sans-serif; font-size: 12px; font-weight: 200;" fill="rgb(33, 33, 33)" stroke="none" stroke-width="1px">-10</text><text x="122.01075000000002" y="0" dx="0em" dy="0.95em" style="text-anchor: middle; visibility: inherit; font-family: Roboto, sans-serif; font-size: 12px; font-weight: 200;" fill="rgb(33, 33, 33)" stroke="none" stroke-width="1px">0</text><text x="244.02150000000003" y="0" dx="0em" dy="0.95em" style="text-anchor: middle; visibility: inherit; font-family: Roboto, sans-serif; font-size: 12px; font-weight: 200;" fill="rgb(33, 33, 33)" stroke="none" stroke-width="1px">10</text><text x="366.03225000000003" y="0" dx="0em" dy="0.95em" style="text-anchor: middle; visibility: inherit; font-family: Roboto, sans-serif; font-size: 12px; font-weight: 200;" fill="rgb(33, 33, 33)" stroke="none" stroke-width="1px">20</text><text x="488.04300000000006" y="0" dx="0em" dy="0.95em" style="text-anchor: middle; visibility: inherit; font-family: Roboto, sans-serif; font-size: 12px; font-weight: 200;" fill="rgb(33, 33, 33)" stroke="none" stroke-width="1px">30</text><text x="610.05375" y="0" dx="0em" dy="0.95em" style="text-anchor: middle; visibility: inherit; font-family: Roboto, sans-serif; font-size: 12px; font-weight: 200;" fill="rgb(33, 33, 33)" stroke="none" stroke-width="1px">40</text><text x="732.0645000000001" y="0" dx="0em" dy="0.95em" style="text-anchor: middle; visibility: inherit; font-family: Roboto, sans-serif; font-size: 12px; font-weight: 200;" fill="rgb(33, 33, 33)" stroke="none" stroke-width="1px">50</text><text x="854.07525" y="0" dx="0em" dy="0.95em" style="text-anchor: middle; visibility: inherit; font-family: Roboto, sans-serif; font-size: 12px; font-weight: 200;" fill="rgb(33, 33, 33)" stroke="none" stroke-width="1px">60</text><text x="976.0860000000001" y="0" dx="0em" dy="0.95em" style="text-anchor: middle; visibility: inherit; font-family: Roboto, sans-serif; font-size: 12px; font-weight: 200;" fill="rgb(33, 33, 33)" stroke="none" stroke-width="1px">70</text><text x="1098.0967500000002" y="0" dx="0em" dy="0.95em" style="text-anchor: middle; visibility: inherit; font-family: Roboto, sans-serif; font-size: 12px; font-weight: 200;" fill="rgb(33, 33, 33)" stroke="none" stroke-width="1px">80</text><text x="1220.1075" y="0" dx="0em" dy="0.95em" style="text-anchor: middle; visibility: hidden; font-family: Roboto, sans-serif; font-size: 12px; font-weight: 200;" fill="rgb(33, 33, 33)" stroke="none" stroke-width="1px">90</text></g><line x1="0" y1="0" x2="1220.1075" y2="0" fill="rgb(0, 0, 0)" stroke="rgb(204, 204, 204)" stroke-width="1px"></line></g></g></g></g></svg>