<svg viewBox="0 0 1271.666748046875 400.0000305175781" xmlns="http://www.w3.org/2000/svg"><g><g><g><g><g><line x1="50" y1="377" x2="45" y2="377" style="visibility: inherit;" fill="rgb(0, 0, 0)" stroke="rgb(204, 204, 204)" stroke-width="1px"></line><line x1="50" y1="348.00000000000006" x2="45" y2="348.00000000000006" style="visibility: inherit;" fill="rgb(0, 0, 0)" stroke="rgb(204, 204, 204)" stroke-width="1px"></line><line x1="50" y1="319.00000000000006" x2="45" y2="319.00000000000006" style="visibility: inherit;" fill="rgb(0, 0, 0)" stroke="rgb(204, 204, 204)" stroke-width="1px"></line><line x1="50" y1="290" x2="45" y2="290" style="visibility: inherit;" fill="rgb(0, 0, 0)" stroke="rgb(204, 204, 204)" stroke-width="1px"></line><line x1="50" y1="261.00000000000006" x2="45" y2="261.00000000000006" style="visibility: inherit;" fill="rgb(0, 0, 0)" stroke="rgb(204, 204, 204)" stroke-width="1px"></line><line x1="50" y1="232" x2="45" y2="232" style="visibility: inherit;" fill="rgb(0, 0, 0)" stroke="rgb(204, 204, 204)" stroke-width="1px"></line><line x1="50" y1="202.99999999999994" x2="45" y2="202.99999999999994" style="visibility: inherit;" fill="rgb(0, 0, 0)" stroke="rgb(204, 204, 204)" stroke-width="1px"></line><line x1="50" y1="174" x2="45" y2="174" style="visibility: inherit;" fill="rgb(0, 0, 0)" stroke="rgb(204, 204, 204)" stroke-width="1px"></line><line x1="50" y1="145" x2="45" y2="145" style="visibility: inherit;" fill="rgb(0, 0, 0)" stroke="rgb(204, 204, 204)" stroke-width="1px"></line><line x1="50" y1="115.99999999999997" x2="45" y2="115.99999999999997" style="visibility: inherit;" fill="rgb(0, 0, 0)" stroke="rgb(204, 204, 204)" stroke-width="1px"></line><line x1="50" y1="86.99999999999994" x2="45" y2="86.99999999999994" style="visibility: inherit;" fill="rgb(0, 0, 0)" stroke="rgb(204, 204, 204)" stroke-width="1px"></line><line x1="50" y1="57.99999999999992" x2="45" y2="57.99999999999992" style="visibility: inherit;" fill="rgb(0, 0, 0)" stroke="rgb(204, 204, 204)" stroke-width="1px"></line><line x1="50" y1="29.00000000000002" x2="45" y2="29.00000000000002" style="visibility: inherit;" fill="rgb(0, 0, 0)" stroke="rgb(204, 204, 204)" stroke-width="1px"></line><line x1="50" y1="0" x2="45" y2="0" style="visibility: inherit;" fill="rgb(0, 0, 0)" stroke="rgb(204, 204, 204)" stroke-width="1px"></line></g><g transform="translate(40, 0)"><text x="0" y="377" dx="0em" dy="0.3em" style="text-anchor: end; visibility: hidden; font-family: Roboto, sans-serif; font-size: 12px; font-weight: 200;" fill="rgb(33, 33, 33)" stroke="none" stroke-width="1px">0.34</text><text x="0" y="348.00000000000006" dx="0em" dy="0.3em" style="text-anchor: end; visibility: inherit; font-family: Roboto, sans-serif; font-size: 12px; font-weight: 200;" fill="rgb(33, 33, 33)" stroke="none" stroke-width="1px">0.36</text><text x="0" y="319.00000000000006" dx="0em" dy="0.3em" style="text-anchor: end; visibility: inherit; font-family: Roboto, sans-serif; font-size: 12px; font-weight: 200;" fill="rgb(33, 33, 33)" stroke="none" stroke-width="1px">0.38</text><text x="0" y="290" dx="0em" dy="0.3em" style="text-anchor: end; visibility: inherit; font-family: Roboto, sans-serif; font-size: 12px; font-weight: 200;" fill="rgb(33, 33, 33)" stroke="none" stroke-width="1px">0.4</text><text x="0" y="261.00000000000006" dx="0em" dy="0.3em" style="text-anchor: end; visibility: inherit; font-family: Roboto, sans-serif; font-size: 12px; font-weight: 200;" fill="rgb(33, 33, 33)" stroke="none" stroke-width="1px">0.42</text><text x="0" y="232" dx="0em" dy="0.3em" style="text-anchor: end; visibility: inherit; font-family: Roboto, sans-serif; font-size: 12px; font-weight: 200;" fill="rgb(33, 33, 33)" stroke="none" stroke-width="1px">0.44</text><text x="0" y="202.99999999999994" dx="0em" dy="0.3em" style="text-anchor: end; visibility: inherit; font-family: Roboto, sans-serif; font-size: 12px; font-weight: 200;" fill="rgb(33, 33, 33)" stroke="none" stroke-width="1px">0.46</text><text x="0" y="174" dx="0em" dy="0.3em" style="text-anchor: end; visibility: inherit; font-family: Roboto, sans-serif; font-size: 12px; font-weight: 200;" fill="rgb(33, 33, 33)" stroke="none" stroke-width="1px">0.48</text><text x="0" y="145" dx="0em" dy="0.3em" style="text-anchor: end; visibility: inherit; font-family: Roboto, sans-serif; font-size: 12px; font-weight: 200;" fill="rgb(33, 33, 33)" stroke="none" stroke-width="1px">0.5</text><text x="0" y="115.99999999999997" dx="0em" dy="0.3em" style="text-anchor: end; visibility: inherit; font-family: Roboto, sans-serif; font-size: 12px; font-weight: 200;" fill="rgb(33, 33, 33)" stroke="none" stroke-width="1px">0.52</text><text x="0" y="86.99999999999994" dx="0em" dy="0.3em" style="text-anchor: end; visibility: inherit; font-family: Roboto, sans-serif; font-size: 12px; font-weight: 200;" fill="rgb(33, 33, 33)" stroke="none" stroke-width="1px">0.54</text><text x="0" y="57.99999999999992" dx="0em" dy="0.3em" style="text-anchor: end; visibility: inherit; font-family: Roboto, sans-serif; font-size: 12px; font-weight: 200;" fill="rgb(33, 33, 33)" stroke="none" stroke-width="1px">0.56</text><text x="0" y="29.00000000000002" dx="0em" dy="0.3em" style="text-anchor: end; visibility: inherit; font-family: Roboto, sans-serif; font-size: 12px; font-weight: 200;" fill="rgb(33, 33, 33)" stroke="none" stroke-width="1px">0.58</text><text x="0" y="0" dx="0em" dy="0.3em" style="text-anchor: end; visibility: hidden; font-family: Roboto, sans-serif; font-size: 12px; font-weight: 200;" fill="rgb(33, 33, 33)" stroke="none" stroke-width="1px">0.6</text></g><line x1="50" y1="0" x2="50" y2="377" fill="rgb(0, 0, 0)" stroke="rgb(204, 204, 204)" stroke-width="1px"></line></g></g><g transform="translate(50, 0)" clip-path="url(#clip_0)"><clipPath id="clip_0"><rect width="1221" height="376"></rect></clipPath><g><g><g><line x1="0" y1="0" x2="0" y2="377" fill="rgb(0, 0, 0)" stroke="rgb(66, 66, 66)" stroke-width="1px" opacity="0.25"></line><line x1="122.16700000000002" y1="0" x2="122.16700000000002" y2="377" fill="rgb(0, 0, 0)" stroke="rgb(66, 66, 66)" stroke-width="1px" opacity="0.25"></line><line x1="244.33400000000003" y1="0" x2="244.33400000000003" y2="377" fill="rgb(0, 0, 0)" stroke="rgb(66, 66, 66)" stroke-width="1px" opacity="0.25"></line><line x1="366.50100000000003" y1="0" x2="366.50100000000003" y2="377" fill="rgb(0, 0, 0)" stroke="rgb(66, 66, 66)" stroke-width="1px" opacity="0.25"></line><line x1="488.66800000000006" y1="0" x2="488.66800000000006" y2="377" fill="rgb(0, 0, 0)" stroke="rgb(66, 66, 66)" stroke-width="1px" opacity="0.25"></line><line x1="610.835" y1="0" x2="610.835" y2="377" fill="rgb(0, 0, 0)" stroke="rgb(66, 66, 66)" stroke-width="1px" opacity="0.25"></line><line x1="733.0020000000001" y1="0" x2="733.0020000000001" y2="377" fill="rgb(0, 0, 0)" stroke="rgb(66, 66, 66)" stroke-width="1px" opacity="0.25"></line><line x1="855.169" y1="0" x2="855.169" y2="377" fill="rgb(0, 0, 0)" stroke="rgb(66, 66, 66)" stroke-width="1px" opacity="0.25"></line><line x1="977.3360000000001" y1="0" x2="977.3360000000001" y2="377" fill="rgb(0, 0, 0)" stroke="rgb(66, 66, 66)" stroke-width="1px" opacity="0.25"></line><line x1="1099.5030000000002" y1="0" x2="1099.5030000000002" y2="377" fill="rgb(0, 0, 0)" stroke="rgb(66, 66, 66)" stroke-width="1px" opacity="0.25"></line><line x1="1221.67" y1="0" x2="1221.67" y2="377" fill="rgb(0, 0, 0)" stroke="rgb(66, 66, 66)" stroke-width="1px" opacity="0.25"></line></g><g><line x1="0" y1="377" x2="1221.67" y2="377" fill="rgb(0, 0, 0)" stroke="rgb(66, 66, 66)" stroke-width="1px" opacity="0.25"></line><line x1="0" y1="348.00000000000006" x2="1221.67" y2="348.00000000000006" fill="rgb(0, 0, 0)" stroke="rgb(66, 66, 66)" stroke-width="1px" opacity="0.25"></line><line x1="0" y1="319.00000000000006" x2="1221.67" y2="319.00000000000006" fill="rgb(0, 0, 0)" stroke="rgb(66, 66, 66)" stroke-width="1px" opacity="0.25"></line><line x1="0" y1="290" x2="1221.67" y2="290" fill="rgb(0, 0, 0)" stroke="rgb(66, 66, 66)" stroke-width="1px" opacity="0.25"></line><line x1="0" y1="261.00000000000006" x2="1221.67" y2="261.00000000000006" fill="rgb(0, 0, 0)" stroke="rgb(66, 66, 66)" stroke-width="1px" opacity="0.25"></line><line x1="0" y1="232" x2="1221.67" y2="232" fill="rgb(0, 0, 0)" stroke="rgb(66, 66, 66)" stroke-width="1px" opacity="0.25"></line><line x1="0" y1="202.99999999999994" x2="1221.67" y2="202.99999999999994" fill="rgb(0, 0, 0)" stroke="rgb(66, 66, 66)" stroke-width="1px" opacity="0.25"></line><line x1="0" y1="174" x2="1221.67" y2="174" fill="rgb(0, 0, 0)" stroke="rgb(66, 66, 66)" stroke-width="1px" opacity="0.25"></line><line x1="0" y1="145" x2="1221.67" y2="145" fill="rgb(0, 0, 0)" stroke="rgb(66, 66, 66)" stroke-width="1px" opacity="0.25"></line><line x1="0" y1="115.99999999999997" x2="1221.67" y2="115.99999999999997" fill="rgb(0, 0, 0)" stroke="rgb(66, 66, 66)" stroke-width="1px" opacity="0.25"></line><line x1="0" y1="86.99999999999994" x2="1221.67" y2="86.99999999999994" fill="rgb(0, 0, 0)" stroke="rgb(66, 66, 66)" stroke-width="1px" opacity="0.25"></line><line x1="0" y1="57.99999999999992" x2="1221.67" y2="57.99999999999992" fill="rgb(0, 0, 0)" stroke="rgb(66, 66, 66)" stroke-width="1px" opacity="0.25"></line><line x1="0" y1="29.00000000000002" x2="1221.67" y2="29.00000000000002" fill="rgb(0, 0, 0)" stroke="rgb(66, 66, 66)" stroke-width="1px" opacity="0.25"></line><line x1="0" y1="0" x2="1221.67" y2="0" fill="rgb(0, 0, 0)" stroke="rgb(66, 66, 66)" stroke-width="1px" opacity="0.25"></line></g></g></g><g><g><line x1="0" y1="870.0000000000001" x2="1221.67" y2="870.0000000000001" fill="rgb(0, 0, 0)" stroke="rgb(153, 153, 153)" stroke-width="1.5px"></line></g></g><g><g><line x1="122.16700000000002" y1="0" x2="122.16700000000002" y2="377" fill="rgb(0, 0, 0)" stroke="rgb(153, 153, 153)" stroke-width="1.5px"></line></g></g><g><g><g><g><g><path stroke="rgb(255, 112, 67)" stroke-width="2px" d="M158.8171,414.3025270613897L171.0338,356.91759971975455L183.25050000000002,304.17775778271954L195.46720000000002,271.2101319597601L207.68390000000002,243.11603078923065L219.9006,219.4897192850025L232.11730000000003,199.4678850747956L244.33400000000003,185.8254591756045L256.5507,169.65015234396472L268.7674,158.20431916128666L280.9841,147.82181183231708L293.2008,137.4934633899091L305.4175,129.3580092741722L317.6342,123.07723340194319L329.8509,115.4070577930826L342.0676,112.12620113930447L354.2843,106.81598592815607L366.50100000000003,105.31087964540855L378.71770000000004,107.5294734774024L390.93440000000004,108.40036780398569L403.15110000000004,105.88132135986682L415.36780000000005,94.72489208885219L427.5845,83.84889255953179L439.8012,76.16269618970784L452.0179,70.13023071998546L464.23460000000006,65.85041874021374L476.45130000000006,63.04240446818292L488.66800000000006,62.95842706956614L500.8847,60.14660252483796L513.1014,57.51904673756101L525.3181000000001,57.043071419554906L537.5348,55.47681485735474L549.7515000000001,54.917269433467645L561.9682,54.42144529806415L574.1849,54.44414458752283L586.4016,53.91745878388722L598.6183,50.7199799562283L610.835,47.98106095242106L623.0517000000001,47.03807724101221L635.2684,46.11209495388288L647.4851000000001,45.256362816679086L659.7018,44.8029382591894L671.9185000000001,44.91109201702857L684.1352,45.676317390192835L696.3519,43.85430537242911L708.5686,43.54149700748032L720.7853,43.39381028143706L733.0020000000001,43.30519824581203L745.2187,42.45161574695379L757.4354000000001,42.63983393677418L769.6521,42.31254163365522L781.8688000000001,43.11667670596273L794.0855,42.65869659059393L806.3022000000001,44.184834253032136L818.5189000000001,43.07944493963658L830.7356000000001,43.496787533011165L842.9523,44.467577209977016L855.169,45.070032877271046L867.3857,44.39099753054653L879.6024,44.04359104724328L891.8191,44.29538680608044L904.0358,44.026257476180575L916.2525,44.30500309525108L928.4692000000001,43.47174001251563L940.6859000000001,43.8722450287039L952.9026000000001,43.71232311432938L965.1193000000001,44.096626046331934L977.3360000000001,42.586296798606085L989.5527000000001,42.76067543138215L1001.7694,43.4456062800237L1013.9861,43.63645318070359L1026.2028,42.0300667459924L1038.4195,42.22684222311736L1050.6362000000001,42.0247137418445L1062.8529,42.803934089604326L1075.0696,43.11136941448638L1087.2863,42.39536774358624" style="fill: none;" fill="none"></path></g></g></g></g><g opacity="0.2"><g><g><g><path stroke="rgb(255, 112, 67)" stroke-width="2px" d="M146.6004,423.2188951969147L158.8171,353.7329670786858L171.0338,281.9958385825157L183.25050000000002,231.21957004070282L195.46720000000002,224.06589955091474L207.68390000000002,202.15456157922748L219.9006,184.64549899101257L232.11730000000003,169.73779469728467L244.33400000000003,165.48555612564087L256.5507,145.47521740198135L268.7674,141.0729420185089L280.9841,132.268391251564L293.2008,122.01308131217957L305.4175,117.1605658531189L317.6342,113.65872740745543L329.8509,103.90374183654785L342.0676,107.20541596412656L354.2843,98.85114848613739L366.50100000000003,103.05330276489258L378.71770000000004,110.85729122161865L390.93440000000004,109.70669209957123L403.15110000000004,102.10278153419495L415.36780000000005,77.99032747745514L427.5845,67.53493964672087L439.8012,64.63342130184174L452.0179,61.081541776657076L464.23460000000006,59.43070471286772L476.45130000000006,58.830384612083435L488.66800000000006,62.83246099948883L500.8847,55.928866267204256L513.1014,53.57771337032314L525.3181000000001,56.32910847663876L537.5348,53.127430081367486L549.7515000000001,54.07795131206512L561.9682,53.67770910263057L574.1849,54.47819352149961L586.4016,53.127430081367486L598.6183,45.92376172542569L610.835,43.872682452201836L623.0517000000001,45.62360167503355L635.2684,44.723121523857074L647.4851000000001,43.972764611244195L659.7018,44.12280142307278L671.9185000000001,45.07332265377041L684.1352,46.82415544986725L696.3519,41.121287345886216L708.5686,43.07228446006771L720.7853,43.17228019237515L733.0020000000001,43.17228019237515L745.2187,41.17124199867245L757.4354000000001,42.922161221504204L769.6521,41.82160317897794L781.8688000000001,44.32287931442257L794.0855,41.9717264175415L806.3022000000001,46.47404074668882L818.5189000000001,41.42136096954344L830.7356000000001,44.12280142307278L842.9523,45.92376172542569L855.169,45.97371637821197L867.3857,43.372444510459864L879.6024,43.52248132228849L891.8191,44.673080444335916L904.0358,43.62256348133085L916.2525,44.723121523857074L928.4692000000001,42.22184538841244L940.6859000000001,44.473002552986124L952.9026000000001,43.4724402427673L965.1193000000001,44.673080444335916L977.3360000000001,40.320802927017176L989.5527000000001,43.02224338054656L1001.7694,44.473002552986124L1013.9861,43.922723531722994L1026.2028,39.620487093925455L1038.4195,42.522005438804584L1050.6362000000001,41.72152101993559L1062.8529,43.972764611244195L1075.0696,43.57252240180965L1087.2863,41.32136523723601" style="fill: none;" fill="none"></path></g></g></g></g></g></g><g transform="translate(50, 377)" clip-path="url(#clip_1)"><clipPath id="clip_1"><rect width="1221" height="22"></rect></clipPath><g><g><line x1="0" y1="0" x2="0" y2="5" style="visibility: inherit;" fill="rgb(0, 0, 0)" stroke="rgb(204, 204, 204)" stroke-width="1px"></line><line x1="122.16700000000002" y1="0" x2="122.16700000000002" y2="5" style="visibility: inherit;" fill="rgb(0, 0, 0)" stroke="rgb(204, 204, 204)" stroke-width="1px"></line><line x1="244.33400000000003" y1="0" x2="244.33400000000003" y2="5" style="visibility: inherit;" fill="rgb(0, 0, 0)" stroke="rgb(204, 204, 204)" stroke-width="1px"></line><line x1="366.50100000000003" y1="0" x2="366.50100000000003" y2="5" style="visibility: inherit;" fill="rgb(0, 0, 0)" stroke="rgb(204, 204, 204)" stroke-width="1px"></line><line x1="488.66800000000006" y1="0" x2="488.66800000000006" y2="5" style="visibility: inherit;" fill="rgb(0, 0, 0)" stroke="rgb(204, 204, 204)" stroke-width="1px"></line><line x1="610.835" y1="0" x2="610.835" y2="5" style="visibility: inherit;" fill="rgb(0, 0, 0)" stroke="rgb(204, 204, 204)" stroke-width="1px"></line><line x1="733.0020000000001" y1="0" x2="733.0020000000001" y2="5" style="visibility: inherit;" fill="rgb(0, 0, 0)" stroke="rgb(204, 204, 204)" stroke-width="1px"></line><line x1="855.169" y1="0" x2="855.169" y2="5" style="visibility: inherit;" fill="rgb(0, 0, 0)" stroke="rgb(204, 204, 204)" stroke-width="1px"></line><line x1="977.3360000000001" y1="0" x2="977.3360000000001" y2="5" style="visibility: inherit;" fill="rgb(0, 0, 0)" stroke="rgb(204, 204, 204)" stroke-width="1px"></line><line x1="1099.5030000000002" y1="0" x2="1099.5030000000002" y2="5" style="visibility: inherit;" fill="rgb(0, 0, 0)" stroke="rgb(204, 204, 204)" stroke-width="1px"></line><line x1="1221.67" y1="0" x2="1221.67" y2="5" style="visibility: inherit;" fill="rgb(0, 0, 0)" stroke="rgb(204, 204, 204)" stroke-width="1px"></line></g><g transform="translate(0, 8)"><text x="0" y="0" dx="0em" dy="0.95em" style="text-anchor: middle; visibility: hidden; font-family: Roboto, sans-serif; font-size: 12px; font-weight: 200;" fill="rgb(33, 33, 33)" stroke="none" stroke-width="1px">-10</text><text x="122.16700000000002" y="0" dx="0em" dy="0.95em" style="text-anchor: middle; visibility: inherit; font-family: Roboto, sans-serif; font-size: 12px; font-weight: 200;" fill="rgb(33, 33, 33)" stroke="none" stroke-width="1px">0</text><text x="244.33400000000003" y="0" dx="0em" dy="0.95em" style="text-anchor: middle; visibility: inherit; font-family: Roboto, sans-serif; font-size: 12px; font-weight: 200;" fill="rgb(33, 33, 33)" stroke="none" stroke-width="1px">10</text><text x="366.50100000000003" y="0" dx="0em" dy="0.95em" style="text-anchor: middle; visibility: inherit; font-family: Roboto, sans-serif; font-size: 12px; font-weight: 200;" fill="rgb(33, 33, 33)" stroke="none" stroke-width="1px">20</text><text x="488.66800000000006" y="0" dx="0em" dy="0.95em" style="text-anchor: middle; visibility: inherit; font-family: Roboto, sans-serif; font-size: 12px; font-weight: 200;" fill="rgb(33, 33, 33)" stroke="none" stroke-width="1px">30</text><text x="610.835" y="0" dx="0em" dy="0.95em" style="text-anchor: middle; visibility: inherit; font-family: Roboto, sans-serif; font-size: 12px; font-weight: 200;" fill="rgb(33, 33, 33)" stroke="none" stroke-width="1px">40</text><text x="733.0020000000001" y="0" dx="0em" dy="0.95em" style="text-anchor: middle; visibility: inherit; font-family: Roboto, sans-serif; font-size: 12px; font-weight: 200;" fill="rgb(33, 33, 33)" stroke="none" stroke-width="1px">50</text><text x="855.169" y="0" dx="0em" dy="0.95em" style="text-anchor: middle; visibility: inherit; font-family: Roboto, sans-serif; font-size: 12px; font-weight: 200;" fill="rgb(33, 33, 33)" stroke="none" stroke-width="1px">60</text><text x="977.3360000000001" y="0" dx="0em" dy="0.95em" style="text-anchor: middle; visibility: inherit; font-family: Roboto, sans-serif; font-size: 12px; font-weight: 200;" fill="rgb(33, 33, 33)" stroke="none" stroke-width="1px">70</text><text x="1099.5030000000002" y="0" dx="0em" dy="0.95em" style="text-anchor: middle; visibility: inherit; font-family: Roboto, sans-serif; font-size: 12px; font-weight: 200;" fill="rgb(33, 33, 33)" stroke="none" stroke-width="1px">80</text><text x="1221.67" y="0" dx="0em" dy="0.95em" style="text-anchor: middle; visibility: hidden; font-family: Roboto, sans-serif; font-size: 12px; font-weight: 200;" fill="rgb(33, 33, 33)" stroke="none" stroke-width="1px">90</text></g><line x1="0" y1="0" x2="1221.67" y2="0" fill="rgb(0, 0, 0)" stroke="rgb(204, 204, 204)" stroke-width="1px"></line></g></g></g></g></svg>