<svg viewBox="0 0 1271.666748046875 400.0000305175781" xmlns="http://www.w3.org/2000/svg"><g><g><g><g><g><line x1="50" y1="377" x2="45" y2="377" style="visibility: inherit;" fill="rgb(0, 0, 0)" stroke="rgb(204, 204, 204)" stroke-width="1px"></line><line x1="50" y1="348" x2="45" y2="348" style="visibility: inherit;" fill="rgb(0, 0, 0)" stroke="rgb(204, 204, 204)" stroke-width="1px"></line><line x1="50" y1="319.00000000000006" x2="45" y2="319.00000000000006" style="visibility: inherit;" fill="rgb(0, 0, 0)" stroke="rgb(204, 204, 204)" stroke-width="1px"></line><line x1="50" y1="290" x2="45" y2="290" style="visibility: inherit;" fill="rgb(0, 0, 0)" stroke="rgb(204, 204, 204)" stroke-width="1px"></line><line x1="50" y1="261" x2="45" y2="261" style="visibility: inherit;" fill="rgb(0, 0, 0)" stroke="rgb(204, 204, 204)" stroke-width="1px"></line><line x1="50" y1="232.00000000000009" x2="45" y2="232.00000000000009" style="visibility: inherit;" fill="rgb(0, 0, 0)" stroke="rgb(204, 204, 204)" stroke-width="1px"></line><line x1="50" y1="203.00000000000003" x2="45" y2="203.00000000000003" style="visibility: inherit;" fill="rgb(0, 0, 0)" stroke="rgb(204, 204, 204)" stroke-width="1px"></line><line x1="50" y1="174" x2="45" y2="174" style="visibility: inherit;" fill="rgb(0, 0, 0)" stroke="rgb(204, 204, 204)" stroke-width="1px"></line><line x1="50" y1="145" x2="45" y2="145" style="visibility: inherit;" fill="rgb(0, 0, 0)" stroke="rgb(204, 204, 204)" stroke-width="1px"></line><line x1="50" y1="115.99999999999997" x2="45" y2="115.99999999999997" style="visibility: inherit;" fill="rgb(0, 0, 0)" stroke="rgb(204, 204, 204)" stroke-width="1px"></line><line x1="50" y1="87.00000000000007" x2="45" y2="87.00000000000007" style="visibility: inherit;" fill="rgb(0, 0, 0)" stroke="rgb(204, 204, 204)" stroke-width="1px"></line><line x1="50" y1="58.00000000000004" x2="45" y2="58.00000000000004" style="visibility: inherit;" fill="rgb(0, 0, 0)" stroke="rgb(204, 204, 204)" stroke-width="1px"></line><line x1="50" y1="29.00000000000002" x2="45" y2="29.00000000000002" style="visibility: inherit;" fill="rgb(0, 0, 0)" stroke="rgb(204, 204, 204)" stroke-width="1px"></line><line x1="50" y1="0" x2="45" y2="0" style="visibility: inherit;" fill="rgb(0, 0, 0)" stroke="rgb(204, 204, 204)" stroke-width="1px"></line></g><g transform="translate(40, 0)"><text x="0" y="377" dx="0em" dy="0.3em" style="text-anchor: end; visibility: hidden; font-family: Roboto, sans-serif; font-size: 12px; font-weight: 200;" fill="rgb(33, 33, 33)" stroke="none" stroke-width="1px">0.9</text><text x="0" y="348" dx="0em" dy="0.3em" style="text-anchor: end; visibility: inherit; font-family: Roboto, sans-serif; font-size: 12px; font-weight: 200;" fill="rgb(33, 33, 33)" stroke="none" stroke-width="1px">0.95</text><text x="0" y="319.00000000000006" dx="0em" dy="0.3em" style="text-anchor: end; visibility: inherit; font-family: Roboto, sans-serif; font-size: 12px; font-weight: 200;" fill="rgb(33, 33, 33)" stroke="none" stroke-width="1px">1</text><text x="0" y="290" dx="0em" dy="0.3em" style="text-anchor: end; visibility: inherit; font-family: Roboto, sans-serif; font-size: 12px; font-weight: 200;" fill="rgb(33, 33, 33)" stroke="none" stroke-width="1px">1.05</text><text x="0" y="261" dx="0em" dy="0.3em" style="text-anchor: end; visibility: inherit; font-family: Roboto, sans-serif; font-size: 12px; font-weight: 200;" fill="rgb(33, 33, 33)" stroke="none" stroke-width="1px">1.1</text><text x="0" y="232.00000000000009" dx="0em" dy="0.3em" style="text-anchor: end; visibility: inherit; font-family: Roboto, sans-serif; font-size: 12px; font-weight: 200;" fill="rgb(33, 33, 33)" stroke="none" stroke-width="1px">1.15</text><text x="0" y="203.00000000000003" dx="0em" dy="0.3em" style="text-anchor: end; visibility: inherit; font-family: Roboto, sans-serif; font-size: 12px; font-weight: 200;" fill="rgb(33, 33, 33)" stroke="none" stroke-width="1px">1.2</text><text x="0" y="174" dx="0em" dy="0.3em" style="text-anchor: end; visibility: inherit; font-family: Roboto, sans-serif; font-size: 12px; font-weight: 200;" fill="rgb(33, 33, 33)" stroke="none" stroke-width="1px">1.25</text><text x="0" y="145" dx="0em" dy="0.3em" style="text-anchor: end; visibility: inherit; font-family: Roboto, sans-serif; font-size: 12px; font-weight: 200;" fill="rgb(33, 33, 33)" stroke="none" stroke-width="1px">1.3</text><text x="0" y="115.99999999999997" dx="0em" dy="0.3em" style="text-anchor: end; visibility: inherit; font-family: Roboto, sans-serif; font-size: 12px; font-weight: 200;" fill="rgb(33, 33, 33)" stroke="none" stroke-width="1px">1.35</text><text x="0" y="87.00000000000007" dx="0em" dy="0.3em" style="text-anchor: end; visibility: inherit; font-family: Roboto, sans-serif; font-size: 12px; font-weight: 200;" fill="rgb(33, 33, 33)" stroke="none" stroke-width="1px">1.4</text><text x="0" y="58.00000000000004" dx="0em" dy="0.3em" style="text-anchor: end; visibility: inherit; font-family: Roboto, sans-serif; font-size: 12px; font-weight: 200;" fill="rgb(33, 33, 33)" stroke="none" stroke-width="1px">1.45</text><text x="0" y="29.00000000000002" dx="0em" dy="0.3em" style="text-anchor: end; visibility: inherit; font-family: Roboto, sans-serif; font-size: 12px; font-weight: 200;" fill="rgb(33, 33, 33)" stroke="none" stroke-width="1px">1.5</text><text x="0" y="0" dx="0em" dy="0.3em" style="text-anchor: end; visibility: hidden; font-family: Roboto, sans-serif; font-size: 12px; font-weight: 200;" fill="rgb(33, 33, 33)" stroke="none" stroke-width="1px">1.55</text></g><line x1="50" y1="0" x2="50" y2="377" fill="rgb(0, 0, 0)" stroke="rgb(204, 204, 204)" stroke-width="1px"></line></g></g><g transform="translate(50, 0)" clip-path="url(#clip_0)"><clipPath id="clip_0"><rect width="1221" height="376"></rect></clipPath><g><g><g><line x1="0" y1="0" x2="0" y2="377" fill="rgb(0, 0, 0)" stroke="rgb(66, 66, 66)" stroke-width="1px" opacity="0.25"></line><line x1="135.7411111111111" y1="0" x2="135.7411111111111" y2="377" fill="rgb(0, 0, 0)" stroke="rgb(66, 66, 66)" stroke-width="1px" opacity="0.25"></line><line x1="271.4822222222222" y1="0" x2="271.4822222222222" y2="377" fill="rgb(0, 0, 0)" stroke="rgb(66, 66, 66)" stroke-width="1px" opacity="0.25"></line><line x1="407.22333333333336" y1="0" x2="407.22333333333336" y2="377" fill="rgb(0, 0, 0)" stroke="rgb(66, 66, 66)" stroke-width="1px" opacity="0.25"></line><line x1="542.9644444444444" y1="0" x2="542.9644444444444" y2="377" fill="rgb(0, 0, 0)" stroke="rgb(66, 66, 66)" stroke-width="1px" opacity="0.25"></line><line x1="678.7055555555556" y1="0" x2="678.7055555555556" y2="377" fill="rgb(0, 0, 0)" stroke="rgb(66, 66, 66)" stroke-width="1px" opacity="0.25"></line><line x1="814.4466666666667" y1="0" x2="814.4466666666667" y2="377" fill="rgb(0, 0, 0)" stroke="rgb(66, 66, 66)" stroke-width="1px" opacity="0.25"></line><line x1="950.1877777777778" y1="0" x2="950.1877777777778" y2="377" fill="rgb(0, 0, 0)" stroke="rgb(66, 66, 66)" stroke-width="1px" opacity="0.25"></line><line x1="1085.9288888888889" y1="0" x2="1085.9288888888889" y2="377" fill="rgb(0, 0, 0)" stroke="rgb(66, 66, 66)" stroke-width="1px" opacity="0.25"></line><line x1="1221.67" y1="0" x2="1221.67" y2="377" fill="rgb(0, 0, 0)" stroke="rgb(66, 66, 66)" stroke-width="1px" opacity="0.25"></line></g><g><line x1="0" y1="377" x2="1221.67" y2="377" fill="rgb(0, 0, 0)" stroke="rgb(66, 66, 66)" stroke-width="1px" opacity="0.25"></line><line x1="0" y1="348" x2="1221.67" y2="348" fill="rgb(0, 0, 0)" stroke="rgb(66, 66, 66)" stroke-width="1px" opacity="0.25"></line><line x1="0" y1="319.00000000000006" x2="1221.67" y2="319.00000000000006" fill="rgb(0, 0, 0)" stroke="rgb(66, 66, 66)" stroke-width="1px" opacity="0.25"></line><line x1="0" y1="290" x2="1221.67" y2="290" fill="rgb(0, 0, 0)" stroke="rgb(66, 66, 66)" stroke-width="1px" opacity="0.25"></line><line x1="0" y1="261" x2="1221.67" y2="261" fill="rgb(0, 0, 0)" stroke="rgb(66, 66, 66)" stroke-width="1px" opacity="0.25"></line><line x1="0" y1="232.00000000000009" x2="1221.67" y2="232.00000000000009" fill="rgb(0, 0, 0)" stroke="rgb(66, 66, 66)" stroke-width="1px" opacity="0.25"></line><line x1="0" y1="203.00000000000003" x2="1221.67" y2="203.00000000000003" fill="rgb(0, 0, 0)" stroke="rgb(66, 66, 66)" stroke-width="1px" opacity="0.25"></line><line x1="0" y1="174" x2="1221.67" y2="174" fill="rgb(0, 0, 0)" stroke="rgb(66, 66, 66)" stroke-width="1px" opacity="0.25"></line><line x1="0" y1="145" x2="1221.67" y2="145" fill="rgb(0, 0, 0)" stroke="rgb(66, 66, 66)" stroke-width="1px" opacity="0.25"></line><line x1="0" y1="115.99999999999997" x2="1221.67" y2="115.99999999999997" fill="rgb(0, 0, 0)" stroke="rgb(66, 66, 66)" stroke-width="1px" opacity="0.25"></line><line x1="0" y1="87.00000000000007" x2="1221.67" y2="87.00000000000007" fill="rgb(0, 0, 0)" stroke="rgb(66, 66, 66)" stroke-width="1px" opacity="0.25"></line><line x1="0" y1="58.00000000000004" x2="1221.67" y2="58.00000000000004" fill="rgb(0, 0, 0)" stroke="rgb(66, 66, 66)" stroke-width="1px" opacity="0.25"></line><line x1="0" y1="29.00000000000002" x2="1221.67" y2="29.00000000000002" fill="rgb(0, 0, 0)" stroke="rgb(66, 66, 66)" stroke-width="1px" opacity="0.25"></line><line x1="0" y1="0" x2="1221.67" y2="0" fill="rgb(0, 0, 0)" stroke="rgb(66, 66, 66)" stroke-width="1px" opacity="0.25"></line></g></g></g><g><g><line x1="0" y1="899" x2="1221.67" y2="899" fill="rgb(0, 0, 0)" stroke="rgb(153, 153, 153)" stroke-width="1.5px"></line></g></g><g><g><line x1="135.7411111111111" y1="0" x2="135.7411111111111" y2="377" fill="rgb(0, 0, 0)" stroke="rgb(153, 153, 153)" stroke-width="1.5px"></line></g></g><g><g><g><g><g><path stroke="rgb(0, 119, 187)" stroke-width="2px" d="M169.6763888888889,-28.159198173966956L176.46344444444443,8.150779622032367L183.25050000000002,39.551697036496364L190.03755555555557,67.88293695064644L196.82461111111112,90.38731677466768L203.61166666666668,106.50151627385738L210.39872222222223,126.75733690974926L217.1857777777778,139.26210195841142L223.97283333333334,155.3640674636991L230.7598888888889,158.78553859008045L237.54694444444445,163.56968953161365L244.33400000000003,176.89255306474823L251.12105555555556,189.00693047893745L257.9081111111111,197.52077320177364L264.6951666666667,202.2149619411693L271.4822222222222,207.8030001627335L278.2692777777778,213.8408166411632L285.0563333333333,210.18773292474256L291.8433888888889,217.24133776644348L298.63044444444444,221.7621315679109L305.4175,229.15888133333561L312.20455555555554,228.46095728184966L318.9916111111111,234.57277734872252L325.7786666666667,235.1386533425877L332.56572222222223,242.04614195028185L339.3527777777778,246.5958027246447L346.13983333333334,246.04619485551063L352.92688888888887,251.04067682282317L359.71394444444445,253.7015322914516L366.50100000000003,257.8205999647848L373.2880555555556,255.58666480354637L380.07511111111114,258.22561187453357L386.86216666666667,261.33454335238974L393.64922222222225,262.4097267920275L400.4362777777778,258.4316011455824L407.22333333333336,259.88038574496903L414.01038888888894,261.6142004190681L420.79744444444447,262.05732888346586L427.5845,264.91855241327784L434.3715555555556,265.7977907269277L441.15861111111116,265.85390007550336L447.9456666666667,267.3986368898422L454.73272222222226,271.04837746174604L461.5197777777778,274.5612007782424L468.3068333333334,267.9470405581395L475.0938888888889,271.25407142657457L481.8809444444445,275.2419797135614L488.66800000000006,276.15330130775254L495.4550555555556,277.0167618210295L502.2421111111111,279.61947863192586L509.0291666666667,282.47800756032126L515.8162222222222,279.59361853918284L522.6032777777777,280.81723069382224L529.3903333333334,285.78536767502186L536.1773888888889,285.36205980026455L542.9644444444444,284.87329857852285L549.7515000000001,284.92912288490675L556.5385555555556,286.116034102343L563.3256111111111,288.181941552104L570.1126666666667,284.1274958867677L576.8997222222223,282.3305144082813L583.6867777777778,285.5397276742047L590.4738333333333,287.55323113577276L597.2608888888889,286.05455850110496L604.0479444444445,286.9434618386389L610.835,288.21808248953585L617.6220555555556,290.9722738635336L624.4091111111111,293.1447872383472L631.1961666666667,295.2636658229278L637.9832222222223,295.61582736240905L644.7702777777778,296.49024550954755L651.5573333333334,297.03143501782563L658.344388888889,298.1172294646749L665.1314444444445,297.86162643612914L671.9185000000001,298.7358439265578L678.7055555555556,297.0054525076681L685.4926111111112,297.63866922493787L692.2796666666667,297.80450986168387L699.0667222222222,298.6487499615049L705.8537777777777,300.88012274149037L712.6408333333334,300.61306853319985L719.4278888888889,301.07624241844286L726.2149444444445,300.9210450955359L733.0020000000001,300.8893519108371L739.7890555555556,300.90891689448813L746.5761111111112,300.140492119725L753.3631666666668,300.3676153173062L760.1502222222223,300.4622937768705L766.9372777777778,301.49664945185225L773.7243333333333,305.18985082376025L780.5113888888889,303.6763404945613L787.2984444444445,304.3965692961264L794.0855,303.4961031224757L800.8725555555556,301.6084790197868L807.6596111111112,302.5404387454901L814.4466666666667,303.3468918407389L821.2337222222224,303.1912335160034L828.0207777777779,303.89595139042484L834.8078333333334,304.60361697683305L841.5948888888889,305.01325413232786L848.3819444444445,302.5126022138938L855.169,301.40377257101204L861.9560555555556,301.25084012646954L868.7431111111111,301.77501980006383L875.5301666666667,302.69299363815605L882.3172222222223,303.29734868838676L889.1042777777778,302.0834827603954L895.8913333333334,302.2282806505L902.678388888889,302.76325089152067L909.4654444444445,303.62085317620875L916.2525,303.0764173927858L923.0395555555556,302.4847231544826L929.8266111111111,302.8927509688004L936.6136666666667,302.5874234618344L943.4007222222223,303.6408898223399L950.1877777777778,301.1925272100543L956.9748333333334,301.7829273672924L963.761888888889,303.9646573145405L970.5489444444445,303.28397207732297L977.3360000000001,301.1695386724191L984.1230555555557,300.7825696084808L990.9101111111112,302.6121843584723L997.6971666666667,301.91158570816197L1004.4842222222222,305.19479879123014L1011.2712777777778,302.5511430763127L1018.0583333333334,302.6016645826651L1024.845388888889,303.50235693441357L1031.6324444444444,304.039370589176L1038.4195,304.06451972289034L1045.2065555555555,302.7788937566468L1051.9936111111112,303.0181163595789L1058.7806666666668,304.7098915366337L1065.5677222222223,304.32935155558613L1072.3547777777778,305.69849785046586L1079.1418333333334,304.3569941036512L1085.9288888888889,302.4523565955526L1092.7159444444446,304.14509006664554L1099.5030000000002,302.8053596277559L1106.2900555555557,304.3869269048884L1113.0771111111112,303.1061128232309" style="fill: none;" fill="none"></path></g><g><path stroke="rgb(255, 112, 67)" stroke-width="2px" d="M176.46344444444443,-28.853302356833606L183.25050000000002,1.2669116011081112L190.03755555555557,29.089547786406573L196.82461111111112,54.106015644079335L203.61166666666668,75.11997378886652L210.39872222222223,90.49044132929569L217.1857777777778,109.15801056257878L223.97283333333334,124.77638186263162L230.7598888888889,137.32535857024246L237.54694444444445,146.91165779324916L244.33400000000003,154.65547287984964L251.12105555555556,164.45093062326552L257.9081111111111,173.0082605330311L264.6951666666667,177.646369258849L271.4822222222222,184.9410323821125L278.2692777777778,191.84144937421505L285.0563333333333,198.74535516940387L291.8433888888889,202.37969339625317L298.63044444444444,208.43345859210356L305.4175,213.8326317056581L312.20455555555554,217.5033234724512L318.9916111111111,220.05680865509126L325.7786666666667,226.5421343050276L332.56572222222223,230.37607908379985L339.3527777777778,233.90743884276725L346.13983333333334,237.84008205736686L352.92688888888887,240.09426864900777L359.71394444444445,242.38115727848634L366.50100000000003,244.67610670665346L373.2880555555556,248.0718666041834L380.07511111111114,250.71253964895735L386.86216666666667,253.56231383901843L393.64922222222225,252.72473304336629L400.4362777777778,256.77810422047617L407.22333333333336,261.83213429537255L414.01038888888894,264.3331869428681L420.79744444444447,267.74242506038195L427.5845,268.2362415887439L434.3715555555556,270.1639916956953L441.15861111111116,273.5548212566424L447.9456666666667,275.33852935073185L454.73272222222226,278.9833582416246L461.5197777777778,282.9404963598231L468.3068333333334,284.955907770744L475.0938888888889,282.74204747005297L481.8809444444445,286.35001154020875L488.66800000000006,288.30523626372826L495.4550555555556,288.96929688671673L502.2421111111111,291.17365100037864L509.0291666666667,293.29188724787184L515.8162222222222,294.13570115823256L522.6032777777777,296.0919120660945L529.3903333333334,298.61906745144887L536.1773888888889,304.26783081358195L542.9644444444444,303.29631383696506L549.7515000000001,305.81931776690084L556.5385555555556,304.8811175995327L563.3256111111111,307.0289824112211L570.1126666666667,308.6086482586834L576.8997222222223,310.0973546732886L583.6867777777778,311.1962879794492L590.4738333333333,313.16311160908066L597.2608888888889,316.3665040504093L604.0479444444445,316.29939709729865L610.835,317.3649802841361L617.6220555555556,324.34044698701L624.4091111111111,329.8775794257265L631.1961666666667,333.7444717734779L637.9832222222223,338.3232765585021L644.7702777777778,341.42649929462885L651.5573333333334,342.83948407613644L658.344388888889,342.9112043502534L665.1314444444445,344.9056692196491L671.9185000000001,345.6701868101097L678.7055555555556,346.0027005031191L685.4926111111112,346.9473869415809L692.2796666666667,347.64614822940166L699.0667222222222,347.79265605495056L705.8537777777777,346.9527386372428L712.6408333333334,347.12087013394483L719.4278888888889,347.9243776444843L726.2149444444445,349.9854087140709L733.0020000000001,350.15886789003315L739.7890555555556,349.2440620746571L746.5761111111112,351.45685155906426L753.3631666666668,352.4417913896927L760.1502222222223,352.922253521865L766.9372777777778,352.5535216764124L773.7243333333333,351.8364420196719L780.5113888888889,353.99053336747335L787.2984444444445,353.5205741975775L794.0855,353.56847225749914L800.8725555555556,353.5087101168896L807.6596111111112,354.3507825200238L814.4466666666667,354.9091127195644L821.2337222222224,354.0901272463017L828.0207777777779,354.11083856625635L834.8078333333334,354.8869873011307L841.5948888888889,354.70063176895354L848.3819444444445,355.03038300958383L855.169,355.4719571464486L861.9560555555556,355.91207824905075L868.7431111111111,355.9789458439312L875.5301666666667,356.0507608130909L882.3172222222223,356.1394139692388L889.1042777777778,358.05252302677644L895.8913333333334,358.179211646266L902.678388888889,357.77830135223104L909.4654444444445,357.76677910922064L916.2525,358.2514886882192L923.0395555555556,359.4824160591535L929.8266111111111,359.87494749163227L936.6136666666667,359.2586029668727L943.4007222222223,360.5562514483976L950.1877777777778,361.10453057408614L956.9748333333334,361.82613816332986L963.761888888889,361.1187814621459L970.5489444444445,359.9969797461229L977.3360000000001,359.9837149816154L984.1230555555557,360.5645918391585L990.9101111111112,360.60603339329L997.6971666666667,361.282362311212L1004.4842222222222,360.9791976983117L1011.2712777777778,360.5276060327749L1018.0583333333334,360.62720738797555L1024.845388888889,361.29340731471285L1031.6324444444444,360.43902694803177L1038.4195,359.0116996504169L1045.2065555555555,360.1399791560949L1051.9936111111112,359.5455197049606L1058.7806666666668,359.9859197827237L1065.5677222222223,359.43660077405315L1072.3547777777778,358.50950332255564L1079.1418333333334,358.9150430427277L1085.9288888888889,358.4563743630817L1092.7159444444446,358.2569244599206L1099.5030000000002,358.3069413123048L1106.2900555555557,360.1318618546436L1113.0771111111112,360.8525241905755" style="fill: none;" fill="none"></path></g></g></g></g><g opacity="0.2"><g><g><g><path stroke="rgb(0, 119, 187)" stroke-width="2px" d="M162.88933333333335,-29.82493972778317L169.6763888888889,24.318574905395526L176.46344444444443,60.074628829956076L183.25050000000002,85.33453607559206L190.03755555555557,109.6660127639771L196.82461111111112,123.80369806289676L203.61166666666668,130.52666091918945L210.39872222222223,157.03083658218384L217.1857777777778,157.97841930389407L223.97283333333334,179.4854702949524L230.7598888888889,163.91372346878052L237.54694444444445,170.74254179000857L244.33400000000003,196.8712105751038L251.12105555555556,207.1754207611084L257.9081111111111,210.2902402877808L264.6951666666667,209.25581598281863L271.4822222222222,216.18475103378296L278.2692777777778,222.8973426818848L285.0563333333333,204.70817947387698L291.8433888888889,227.82166147232056L298.63044444444444,228.54329013824463L305.4175,240.25397443771368L312.20455555555554,227.41407299041754L318.9916111111111,243.74049806594851L325.7786666666667,235.9874668121338L332.56572222222223,252.40737104415894L339.3527777777778,253.42029237747192L346.13983333333334,245.22178316116336L352.92688888888887,258.53239917755127L359.71394444444445,257.6928153038025L366.50100000000003,263.99920129776007L373.2880555555556,252.2357621192932L380.07511111111114,262.18403244018555L386.86216666666667,265.9979405403138L393.64922222222225,264.0225019454956L400.4362777777778,252.464412689209L407.22333333333336,262.0535626411438L414.01038888888894,264.21492242813116L420.79744444444447,262.72202157974243L427.5845,269.21038770675665L434.3715555555556,267.11664819717413L441.15861111111116,265.93806409835815L447.9456666666667,269.71574211120605L454.73272222222226,276.52298831939703L461.5197777777778,279.8304357528687L468.3068333333334,258.02580022811895L475.0938888888889,276.214617729187L481.8809444444445,281.22384214401245L488.66800000000006,277.52028369903564L495.4550555555556,278.3119525909424L502.2421111111111,283.5235538482666L509.0291666666667,286.7658009529114L515.8162222222222,275.26703500747686L522.6032777777777,282.65264892578125L529.3903333333334,293.23757314682007L536.1773888888889,284.72709798812866L542.9644444444444,284.14015674591064L549.7515000000001,285.0128593444825L556.5385555555556,287.8964009284973L563.3256111111111,291.2808027267456L570.1126666666667,278.0458273887634L576.8997222222223,279.63504219055176L583.6867777777778,290.3535475730896L590.4738333333333,290.573486328125L597.2608888888889,283.8065495491028L604.0479444444445,288.27681684494024L610.835,290.13001346588135L617.6220555555556,295.10356092453003L624.4091111111111,296.4035573005676L631.1961666666667,298.4419836997986L637.9832222222223,296.1440696716309L644.7702777777778,297.8018727302551L651.5573333333334,297.8432192802429L658.344388888889,299.74592113494873L665.1314444444445,297.4782218933106L671.9185000000001,300.0471701622009L678.7055555555556,294.4098653793335L685.4926111111112,298.5884943008423L692.2796666666667,298.053270816803L699.0667222222222,299.9151101112366L705.8537777777777,304.22718191146856L712.6408333333334,300.2124872207642L719.4278888888889,301.7710032463074L726.2149444444445,300.68824911117554L733.0020000000001,300.84181213378906L739.7890555555556,300.9382643699646L746.5761111111112,298.9878549575806L753.3631666666668,300.708300113678L760.1502222222223,300.60431146621704L766.9372777777778,303.04818296432495L773.7243333333333,310.7296528816223L780.5113888888889,301.40607500076294L787.2984444444445,305.4769124984741L794.0855,302.1454038619995L800.8725555555556,298.77704286575323L807.6596111111112,303.9383783340454L814.4466666666667,304.5565714836121L821.2337222222224,302.95774602890015L828.0207777777779,304.9530282020569L834.8078333333334,305.6651153564453L841.5948888888889,305.6277098655701L848.3819444444445,298.7616243362427L855.169,299.74052810668945L861.9560555555556,301.0214414596558L868.7431111111111,302.5612893104553L875.5301666666667,304.0699543952942L882.3172222222223,304.2038812637329L889.1042777777778,300.2626838684082L895.8913333333334,302.44547748565674L902.678388888889,303.56570625305176L909.4654444444445,304.90725660324097L916.2525,302.2597637176514L923.0395555555556,301.59718179702764L929.8266111111111,303.5047926902771L936.6136666666667,302.12943220138555L943.4007222222223,305.22108936309814L950.1877777777778,297.519983291626L956.9748333333334,302.6685276031494L963.761888888889,307.2372522354126L970.5489444444445,302.2629442214966L977.3360000000001,297.9978885650635L984.1230555555557,300.20211601257324L990.9101111111112,305.3566064834595L997.6971666666667,300.86068773269653L1004.4842222222222,310.1196184158325L1011.2712777777778,298.58565950393677L1018.0583333333334,302.6774468421936L1024.845388888889,304.85339546203613L1031.6324444444444,304.8448910713196L1038.4195,304.10224342346197L1045.2065555555555,300.8504548072815L1051.9936111111112,303.37695026397705L1058.7806666666668,307.2475543022156L1065.5677222222223,303.7585415840149L1072.3547777777778,307.75221729278564L1079.1418333333334,302.34473848342896L1085.9288888888889,299.59540033340454L1092.7159444444446,306.6841902732849L1099.5030000000002,300.7957639694214L1106.2900555555557,306.75927782058716L1113.0771111111112,301.18489170074463" style="fill: none;" fill="none"></path></g><g><path stroke="rgb(255, 112, 67)" stroke-width="2px" d="M169.6763888888889,-16.087306499481194L176.46344444444443,13.447820186615022L183.25050000000002,45.1824727058411L190.03755555555557,70.12253189086918L196.82461111111112,91.2525548934937L203.61166666666668,106.45031595230105L210.39872222222223,113.4624972343445L217.1857777777778,137.09841156005862L223.97283333333334,148.17334079742434L230.7598888888889,156.13407278060916L237.54694444444445,161.28434562683108L244.33400000000003,166.26791858673096L251.12105555555556,179.14163017272952L257.9081111111111,185.84295177459717L264.6951666666667,184.60310840606692L271.4822222222222,195.8826270103455L278.2692777777778,202.19184780120852L285.0563333333333,209.10107755661014L291.8433888888889,207.8311576843262L298.63044444444444,217.5140633583069L305.4175,221.93136835098267L312.20455555555554,223.00935173034668L318.9916111111111,223.88703250885015L325.7786666666667,236.2701168060303L332.56572222222223,236.1269941329956L339.3527777777778,239.2044773101807L346.13983333333334,243.73904609680176L352.92688888888887,243.4755482673645L359.71394444444445,245.81149005889898L366.50100000000003,248.1185307502747L373.2880555555556,253.16550636291507L380.07511111111114,254.67354917526245L386.86216666666667,257.83697509765625L393.64922222222225,251.46836185455322L400.4362777777778,262.8581609725952L407.22333333333336,269.41317939758306L414.01038888888894,268.0847659111023L420.79744444444447,272.8562822341919L427.5845,268.97696638107305L434.3715555555556,273.0556168556214L441.15861111111116,278.6410655975342L447.9456666666667,278.0140914916992L454.73272222222226,284.4506015777588L461.5197777777778,288.8762035369873L468.3068333333334,287.979024887085L475.0938888888889,279.42125701904297L481.8809444444445,291.76195764541626L488.66800000000006,291.2380733489991L495.4550555555556,289.9653878211975L502.2421111111111,294.480182170868L509.0291666666667,296.4692416191101L515.8162222222222,295.4014220237732L522.6032777777777,299.02622842788696L529.3903333333334,302.40980052948L536.1773888888889,312.74097585678106L542.9644444444444,301.8390383720398L549.7515000000001,309.6038236618042L556.5385555555556,303.4738173484802L563.3256111111111,310.25077962875366L570.1126666666667,310.9781470298767L576.8997222222223,312.33041429519653L583.6867777777778,312.8446879386902L590.4738333333333,316.11334705352783L597.2608888888889,321.1715927124024L604.0479444444445,316.19873666763306L610.835,318.9633550643921L617.6220555555556,334.8036470413208L624.4091111111111,338.18327808380127L631.1961666666667,339.544810295105L637.9832222222223,345.1914837360382L644.7702777777778,346.08133339881897L651.5573333333334,344.9589612483978L658.344388888889,343.0187847614289L665.1314444444445,347.89736652374273L671.9185000000001,346.81696319580084L678.7055555555556,346.5014710426331L685.4926111111112,348.3644165992737L692.2796666666667,348.6942901611328L699.0667222222222,348.012417793274L705.8537777777777,345.69286251068115L712.6408333333334,347.3730673789978L719.4278888888889,349.1296389102936L726.2149444444445,353.0769553184509L733.0020000000001,350.4190566539765L739.7890555555556,347.871853351593L746.5761111111112,354.7760357856751L753.3631666666668,353.9192011356354L760.1502222222223,353.6429467201233L766.9372777777778,352.0004239082337L773.7243333333333,350.76082253456116L780.5113888888889,357.2216703891754L787.2984444444445,352.81563544273376L794.0855,353.6403193473816L800.8725555555556,353.41906690597534L807.6596111111112,355.6138911247254L814.4466666666667,355.7466080188751L821.2337222222224,352.8616490364075L828.0207777777779,354.1419055461884L834.8078333333334,356.0512104034424L841.5948888888889,354.42109847068787L848.3819444444445,355.5250098705292L855.169,356.13431835174566L861.9560555555556,356.5722599029541L868.7431111111111,356.07924723625183L875.5301666666667,356.15848326683044L882.3172222222223,356.2723937034607L889.1042777777778,360.9221866130829L895.8913333333334,358.3692445755005L902.678388888889,357.1769359111786L909.4654444444445,357.7494957447052L916.2525,358.978553056717L923.0395555555556,361.3288071155548L929.8266111111111,360.46374464035034L936.6136666666667,358.33408617973333L943.4007222222223,362.5027241706848L950.1877777777778,361.926949262619L956.9748333333334,362.90854954719543L963.761888888889,360.05774641036993L970.5489444444445,358.3142771720886L977.3360000000001,359.9638178348542L984.1230555555557,361.435907125473L990.9101111111112,360.6681957244873L997.6971666666667,362.2968556880951L1004.4842222222222,360.5244507789612L1011.2712777777778,359.8502185344696L1018.0583333333334,360.77660942077637L1024.845388888889,362.2927072048188L1031.6324444444444,359.15745639801025L1038.4195,356.87070870399475L1045.2065555555555,361.8323984146118L1051.9936111111112,358.6538305282593L1058.7806666666668,360.6465198993683L1065.5677222222223,358.61262226104736L1072.3547777777778,357.1188571453095L1079.1418333333334,359.52335262298584L1085.9288888888889,357.76837134361267L1092.7159444444446,357.95774960517883L1099.5030000000002,358.38196659088135L1106.2900555555557,362.86924266815186L1113.0771111111112,361.93351769447327" style="fill: none;" fill="none"></path></g></g></g></g></g></g><g transform="translate(50, 377)" clip-path="url(#clip_1)"><clipPath id="clip_1"><rect width="1221" height="22"></rect></clipPath><g><g><line x1="0" y1="0" x2="0" y2="5" style="visibility: inherit;" fill="rgb(0, 0, 0)" stroke="rgb(204, 204, 204)" stroke-width="1px"></line><line x1="135.7411111111111" y1="0" x2="135.7411111111111" y2="5" style="visibility: inherit;" fill="rgb(0, 0, 0)" stroke="rgb(204, 204, 204)" stroke-width="1px"></line><line x1="271.4822222222222" y1="0" x2="271.4822222222222" y2="5" style="visibility: inherit;" fill="rgb(0, 0, 0)" stroke="rgb(204, 204, 204)" stroke-width="1px"></line><line x1="407.22333333333336" y1="0" x2="407.22333333333336" y2="5" style="visibility: inherit;" fill="rgb(0, 0, 0)" stroke="rgb(204, 204, 204)" stroke-width="1px"></line><line x1="542.9644444444444" y1="0" x2="542.9644444444444" y2="5" style="visibility: inherit;" fill="rgb(0, 0, 0)" stroke="rgb(204, 204, 204)" stroke-width="1px"></line><line x1="678.7055555555556" y1="0" x2="678.7055555555556" y2="5" style="visibility: inherit;" fill="rgb(0, 0, 0)" stroke="rgb(204, 204, 204)" stroke-width="1px"></line><line x1="814.4466666666667" y1="0" x2="814.4466666666667" y2="5" style="visibility: inherit;" fill="rgb(0, 0, 0)" stroke="rgb(204, 204, 204)" stroke-width="1px"></line><line x1="950.1877777777778" y1="0" x2="950.1877777777778" y2="5" style="visibility: inherit;" fill="rgb(0, 0, 0)" stroke="rgb(204, 204, 204)" stroke-width="1px"></line><line x1="1085.9288888888889" y1="0" x2="1085.9288888888889" y2="5" style="visibility: inherit;" fill="rgb(0, 0, 0)" stroke="rgb(204, 204, 204)" stroke-width="1px"></line><line x1="1221.67" y1="0" x2="1221.67" y2="5" style="visibility: inherit;" fill="rgb(0, 0, 0)" stroke="rgb(204, 204, 204)" stroke-width="1px"></line></g><g transform="translate(0, 8)"><text x="0" y="0" dx="0em" dy="0.95em" style="text-anchor: middle; visibility: hidden; font-family: Roboto, sans-serif; font-size: 12px; font-weight: 200;" fill="rgb(33, 33, 33)" stroke="none" stroke-width="1px">-20</text><text x="135.7411111111111" y="0" dx="0em" dy="0.95em" style="text-anchor: middle; visibility: inherit; font-family: Roboto, sans-serif; font-size: 12px; font-weight: 200;" fill="rgb(33, 33, 33)" stroke="none" stroke-width="1px">0</text><text x="271.4822222222222" y="0" dx="0em" dy="0.95em" style="text-anchor: middle; visibility: inherit; font-family: Roboto, sans-serif; font-size: 12px; font-weight: 200;" fill="rgb(33, 33, 33)" stroke="none" stroke-width="1px">20</text><text x="407.22333333333336" y="0" dx="0em" dy="0.95em" style="text-anchor: middle; visibility: inherit; font-family: Roboto, sans-serif; font-size: 12px; font-weight: 200;" fill="rgb(33, 33, 33)" stroke="none" stroke-width="1px">40</text><text x="542.9644444444444" y="0" dx="0em" dy="0.95em" style="text-anchor: middle; visibility: inherit; font-family: Roboto, sans-serif; font-size: 12px; font-weight: 200;" fill="rgb(33, 33, 33)" stroke="none" stroke-width="1px">60</text><text x="678.7055555555556" y="0" dx="0em" dy="0.95em" style="text-anchor: middle; visibility: inherit; font-family: Roboto, sans-serif; font-size: 12px; font-weight: 200;" fill="rgb(33, 33, 33)" stroke="none" stroke-width="1px">80</text><text x="814.4466666666667" y="0" dx="0em" dy="0.95em" style="text-anchor: middle; visibility: inherit; font-family: Roboto, sans-serif; font-size: 12px; font-weight: 200;" fill="rgb(33, 33, 33)" stroke="none" stroke-width="1px">100</text><text x="950.1877777777778" y="0" dx="0em" dy="0.95em" style="text-anchor: middle; visibility: inherit; font-family: Roboto, sans-serif; font-size: 12px; font-weight: 200;" fill="rgb(33, 33, 33)" stroke="none" stroke-width="1px">120</text><text x="1085.9288888888889" y="0" dx="0em" dy="0.95em" style="text-anchor: middle; visibility: inherit; font-family: Roboto, sans-serif; font-size: 12px; font-weight: 200;" fill="rgb(33, 33, 33)" stroke="none" stroke-width="1px">140</text><text x="1221.67" y="0" dx="0em" dy="0.95em" style="text-anchor: middle; visibility: hidden; font-family: Roboto, sans-serif; font-size: 12px; font-weight: 200;" fill="rgb(33, 33, 33)" stroke="none" stroke-width="1px">160</text></g><line x1="0" y1="0" x2="1221.67" y2="0" fill="rgb(0, 0, 0)" stroke="rgb(204, 204, 204)" stroke-width="1px"></line></g></g></g></g></svg>