<svg viewBox="0 0 1271.666748046875 400.0000305175781" xmlns="http://www.w3.org/2000/svg"><g><g><g><g><g><line x1="50" y1="377" x2="45" y2="377" style="visibility: inherit;" fill="rgb(0, 0, 0)" stroke="rgb(204, 204, 204)" stroke-width="1px"></line><line x1="50" y1="350.0714285714286" x2="45" y2="350.0714285714286" style="visibility: inherit;" fill="rgb(0, 0, 0)" stroke="rgb(204, 204, 204)" stroke-width="1px"></line><line x1="50" y1="323.14285714285717" x2="45" y2="323.14285714285717" style="visibility: inherit;" fill="rgb(0, 0, 0)" stroke="rgb(204, 204, 204)" stroke-width="1px"></line><line x1="50" y1="296.2142857142857" x2="45" y2="296.2142857142857" style="visibility: inherit;" fill="rgb(0, 0, 0)" stroke="rgb(204, 204, 204)" stroke-width="1px"></line><line x1="50" y1="269.28571428571433" x2="45" y2="269.28571428571433" style="visibility: inherit;" fill="rgb(0, 0, 0)" stroke="rgb(204, 204, 204)" stroke-width="1px"></line><line x1="50" y1="242.35714285714292" x2="45" y2="242.35714285714292" style="visibility: inherit;" fill="rgb(0, 0, 0)" stroke="rgb(204, 204, 204)" stroke-width="1px"></line><line x1="50" y1="215.42857142857144" x2="45" y2="215.42857142857144" style="visibility: inherit;" fill="rgb(0, 0, 0)" stroke="rgb(204, 204, 204)" stroke-width="1px"></line><line x1="50" y1="188.5" x2="45" y2="188.5" style="visibility: inherit;" fill="rgb(0, 0, 0)" stroke="rgb(204, 204, 204)" stroke-width="1px"></line><line x1="50" y1="161.57142857142856" x2="45" y2="161.57142857142856" style="visibility: inherit;" fill="rgb(0, 0, 0)" stroke="rgb(204, 204, 204)" stroke-width="1px"></line><line x1="50" y1="134.64285714285725" x2="45" y2="134.64285714285725" style="visibility: inherit;" fill="rgb(0, 0, 0)" stroke="rgb(204, 204, 204)" stroke-width="1px"></line><line x1="50" y1="107.7142857142858" x2="45" y2="107.7142857142858" style="visibility: inherit;" fill="rgb(0, 0, 0)" stroke="rgb(204, 204, 204)" stroke-width="1px"></line><line x1="50" y1="80.78571428571433" x2="45" y2="80.78571428571433" style="visibility: inherit;" fill="rgb(0, 0, 0)" stroke="rgb(204, 204, 204)" stroke-width="1px"></line><line x1="50" y1="53.85714285714292" x2="45" y2="53.85714285714292" style="visibility: inherit;" fill="rgb(0, 0, 0)" stroke="rgb(204, 204, 204)" stroke-width="1px"></line><line x1="50" y1="26.92857142857146" x2="45" y2="26.92857142857146" style="visibility: inherit;" fill="rgb(0, 0, 0)" stroke="rgb(204, 204, 204)" stroke-width="1px"></line><line x1="50" y1="0" x2="45" y2="0" style="visibility: inherit;" fill="rgb(0, 0, 0)" stroke="rgb(204, 204, 204)" stroke-width="1px"></line></g><g transform="translate(40, 0)"><text x="0" y="377" dx="0em" dy="0.3em" style="text-anchor: end; visibility: hidden; font-family: Roboto, sans-serif; font-size: 12px; font-weight: 200;" fill="rgb(33, 33, 33)" stroke="none" stroke-width="1px">0.4</text><text x="0" y="350.0714285714286" dx="0em" dy="0.3em" style="text-anchor: end; visibility: inherit; font-family: Roboto, sans-serif; font-size: 12px; font-weight: 200;" fill="rgb(33, 33, 33)" stroke="none" stroke-width="1px">0.42</text><text x="0" y="323.14285714285717" dx="0em" dy="0.3em" style="text-anchor: end; visibility: inherit; font-family: Roboto, sans-serif; font-size: 12px; font-weight: 200;" fill="rgb(33, 33, 33)" stroke="none" stroke-width="1px">0.44</text><text x="0" y="296.2142857142857" dx="0em" dy="0.3em" style="text-anchor: end; visibility: inherit; font-family: Roboto, sans-serif; font-size: 12px; font-weight: 200;" fill="rgb(33, 33, 33)" stroke="none" stroke-width="1px">0.46</text><text x="0" y="269.28571428571433" dx="0em" dy="0.3em" style="text-anchor: end; visibility: inherit; font-family: Roboto, sans-serif; font-size: 12px; font-weight: 200;" fill="rgb(33, 33, 33)" stroke="none" stroke-width="1px">0.48</text><text x="0" y="242.35714285714292" dx="0em" dy="0.3em" style="text-anchor: end; visibility: inherit; font-family: Roboto, sans-serif; font-size: 12px; font-weight: 200;" fill="rgb(33, 33, 33)" stroke="none" stroke-width="1px">0.5</text><text x="0" y="215.42857142857144" dx="0em" dy="0.3em" style="text-anchor: end; visibility: inherit; font-family: Roboto, sans-serif; font-size: 12px; font-weight: 200;" fill="rgb(33, 33, 33)" stroke="none" stroke-width="1px">0.52</text><text x="0" y="188.5" dx="0em" dy="0.3em" style="text-anchor: end; visibility: inherit; font-family: Roboto, sans-serif; font-size: 12px; font-weight: 200;" fill="rgb(33, 33, 33)" stroke="none" stroke-width="1px">0.54</text><text x="0" y="161.57142857142856" dx="0em" dy="0.3em" style="text-anchor: end; visibility: inherit; font-family: Roboto, sans-serif; font-size: 12px; font-weight: 200;" fill="rgb(33, 33, 33)" stroke="none" stroke-width="1px">0.56</text><text x="0" y="134.64285714285725" dx="0em" dy="0.3em" style="text-anchor: end; visibility: inherit; font-family: Roboto, sans-serif; font-size: 12px; font-weight: 200;" fill="rgb(33, 33, 33)" stroke="none" stroke-width="1px">0.58</text><text x="0" y="107.7142857142858" dx="0em" dy="0.3em" style="text-anchor: end; visibility: inherit; font-family: Roboto, sans-serif; font-size: 12px; font-weight: 200;" fill="rgb(33, 33, 33)" stroke="none" stroke-width="1px">0.6</text><text x="0" y="80.78571428571433" dx="0em" dy="0.3em" style="text-anchor: end; visibility: inherit; font-family: Roboto, sans-serif; font-size: 12px; font-weight: 200;" fill="rgb(33, 33, 33)" stroke="none" stroke-width="1px">0.62</text><text x="0" y="53.85714285714292" dx="0em" dy="0.3em" style="text-anchor: end; visibility: inherit; font-family: Roboto, sans-serif; font-size: 12px; font-weight: 200;" fill="rgb(33, 33, 33)" stroke="none" stroke-width="1px">0.64</text><text x="0" y="26.92857142857146" dx="0em" dy="0.3em" style="text-anchor: end; visibility: inherit; font-family: Roboto, sans-serif; font-size: 12px; font-weight: 200;" fill="rgb(33, 33, 33)" stroke="none" stroke-width="1px">0.66</text><text x="0" y="0" dx="0em" dy="0.3em" style="text-anchor: end; visibility: hidden; font-family: Roboto, sans-serif; font-size: 12px; font-weight: 200;" fill="rgb(33, 33, 33)" stroke="none" stroke-width="1px">0.68</text></g><line x1="50" y1="0" x2="50" y2="377" fill="rgb(0, 0, 0)" stroke="rgb(204, 204, 204)" stroke-width="1px"></line></g></g><g transform="translate(50, 0)" clip-path="url(#clip_0)"><clipPath id="clip_0"><rect width="1221" height="376"></rect></clipPath><g><g><g><line x1="0" y1="0" x2="0" y2="377" fill="rgb(0, 0, 0)" stroke="rgb(66, 66, 66)" stroke-width="1px" opacity="0.25"></line><line x1="135.7411111111111" y1="0" x2="135.7411111111111" y2="377" fill="rgb(0, 0, 0)" stroke="rgb(66, 66, 66)" stroke-width="1px" opacity="0.25"></line><line x1="271.4822222222222" y1="0" x2="271.4822222222222" y2="377" fill="rgb(0, 0, 0)" stroke="rgb(66, 66, 66)" stroke-width="1px" opacity="0.25"></line><line x1="407.22333333333336" y1="0" x2="407.22333333333336" y2="377" fill="rgb(0, 0, 0)" stroke="rgb(66, 66, 66)" stroke-width="1px" opacity="0.25"></line><line x1="542.9644444444444" y1="0" x2="542.9644444444444" y2="377" fill="rgb(0, 0, 0)" stroke="rgb(66, 66, 66)" stroke-width="1px" opacity="0.25"></line><line x1="678.7055555555556" y1="0" x2="678.7055555555556" y2="377" fill="rgb(0, 0, 0)" stroke="rgb(66, 66, 66)" stroke-width="1px" opacity="0.25"></line><line x1="814.4466666666667" y1="0" x2="814.4466666666667" y2="377" fill="rgb(0, 0, 0)" stroke="rgb(66, 66, 66)" stroke-width="1px" opacity="0.25"></line><line x1="950.1877777777778" y1="0" x2="950.1877777777778" y2="377" fill="rgb(0, 0, 0)" stroke="rgb(66, 66, 66)" stroke-width="1px" opacity="0.25"></line><line x1="1085.9288888888889" y1="0" x2="1085.9288888888889" y2="377" fill="rgb(0, 0, 0)" stroke="rgb(66, 66, 66)" stroke-width="1px" opacity="0.25"></line><line x1="1221.67" y1="0" x2="1221.67" y2="377" fill="rgb(0, 0, 0)" stroke="rgb(66, 66, 66)" stroke-width="1px" opacity="0.25"></line></g><g><line x1="0" y1="377" x2="1221.67" y2="377" fill="rgb(0, 0, 0)" stroke="rgb(66, 66, 66)" stroke-width="1px" opacity="0.25"></line><line x1="0" y1="350.0714285714286" x2="1221.67" y2="350.0714285714286" fill="rgb(0, 0, 0)" stroke="rgb(66, 66, 66)" stroke-width="1px" opacity="0.25"></line><line x1="0" y1="323.14285714285717" x2="1221.67" y2="323.14285714285717" fill="rgb(0, 0, 0)" stroke="rgb(66, 66, 66)" stroke-width="1px" opacity="0.25"></line><line x1="0" y1="296.2142857142857" x2="1221.67" y2="296.2142857142857" fill="rgb(0, 0, 0)" stroke="rgb(66, 66, 66)" stroke-width="1px" opacity="0.25"></line><line x1="0" y1="269.28571428571433" x2="1221.67" y2="269.28571428571433" fill="rgb(0, 0, 0)" stroke="rgb(66, 66, 66)" stroke-width="1px" opacity="0.25"></line><line x1="0" y1="242.35714285714292" x2="1221.67" y2="242.35714285714292" fill="rgb(0, 0, 0)" stroke="rgb(66, 66, 66)" stroke-width="1px" opacity="0.25"></line><line x1="0" y1="215.42857142857144" x2="1221.67" y2="215.42857142857144" fill="rgb(0, 0, 0)" stroke="rgb(66, 66, 66)" stroke-width="1px" opacity="0.25"></line><line x1="0" y1="188.5" x2="1221.67" y2="188.5" fill="rgb(0, 0, 0)" stroke="rgb(66, 66, 66)" stroke-width="1px" opacity="0.25"></line><line x1="0" y1="161.57142857142856" x2="1221.67" y2="161.57142857142856" fill="rgb(0, 0, 0)" stroke="rgb(66, 66, 66)" stroke-width="1px" opacity="0.25"></line><line x1="0" y1="134.64285714285725" x2="1221.67" y2="134.64285714285725" fill="rgb(0, 0, 0)" stroke="rgb(66, 66, 66)" stroke-width="1px" opacity="0.25"></line><line x1="0" y1="107.7142857142858" x2="1221.67" y2="107.7142857142858" fill="rgb(0, 0, 0)" stroke="rgb(66, 66, 66)" stroke-width="1px" opacity="0.25"></line><line x1="0" y1="80.78571428571433" x2="1221.67" y2="80.78571428571433" fill="rgb(0, 0, 0)" stroke="rgb(66, 66, 66)" stroke-width="1px" opacity="0.25"></line><line x1="0" y1="53.85714285714292" x2="1221.67" y2="53.85714285714292" fill="rgb(0, 0, 0)" stroke="rgb(66, 66, 66)" stroke-width="1px" opacity="0.25"></line><line x1="0" y1="26.92857142857146" x2="1221.67" y2="26.92857142857146" fill="rgb(0, 0, 0)" stroke="rgb(66, 66, 66)" stroke-width="1px" opacity="0.25"></line><line x1="0" y1="0" x2="1221.67" y2="0" fill="rgb(0, 0, 0)" stroke="rgb(66, 66, 66)" stroke-width="1px" opacity="0.25"></line></g></g></g><g><g><line x1="0" y1="915.5714285714287" x2="1221.67" y2="915.5714285714287" fill="rgb(0, 0, 0)" stroke="rgb(153, 153, 153)" stroke-width="1.5px"></line></g></g><g><g><line x1="135.7411111111111" y1="0" x2="135.7411111111111" y2="377" fill="rgb(0, 0, 0)" stroke="rgb(153, 153, 153)" stroke-width="1.5px"></line></g></g><g><g><g><g><g><path stroke="rgb(0, 119, 187)" stroke-width="2px" d="M176.46344444444443,378.0075256863481L183.25050000000002,349.75591309158347L190.03755555555557,321.1105373717619L196.82461111111112,298.5064496017561L203.61166666666668,280.06365553798247L210.39872222222223,262.5917217504747L217.1857777777778,250.39812596280916L223.97283333333334,234.11305957449966L230.7598888888889,234.99792139842546L237.54694444444445,231.75306138040173L244.33400000000003,217.73881514987374L251.12105555555556,204.93810807303754L257.9081111111111,194.16452682278626L264.6951666666667,189.18586139622846L271.4822222222222,187.00319213304041L278.2692777777778,177.89712581924525L285.0563333333333,182.8288673105681L291.8433888888889,178.05328506481462L298.63044444444444,173.76479661896192L305.4175,168.03601400720444L312.20455555555554,171.28139367579817L318.9916111111111,164.25657300088025L325.7786666666667,162.94987491718513L332.56572222222223,158.08201692429407L339.3527777777778,154.6662676993364L346.13983333333334,153.4212143643102L352.92688888888887,148.0953407091433L359.71394444444445,142.1772682692711L366.50100000000003,136.2751287551182L373.2880555555556,139.7258421191161L380.07511111111114,136.22742267947072L386.86216666666667,137.9028166965167L393.64922222222225,135.9380032891424L400.4362777777778,138.84295380095733L407.22333333333336,136.25458407863758L414.01038888888894,133.525914186845L420.79744444444447,130.89867424908357L427.5845,128.14668222754494L434.3715555555556,127.23799144141523L441.15861111111116,127.435313497614L447.9456666666667,126.37805867211756L454.73272222222226,120.17482627455975L461.5197777777778,114.84409514417635L468.3068333333334,125.13471158874921L475.0938888888889,122.02761561846103L481.8809444444445,116.69830527834313L488.66800000000006,115.2951208221255L495.4550555555556,115.75260894529666L502.2421111111111,114.29455938954648L509.0291666666667,113.60537181337921L515.8162222222222,115.97629901875965L522.6032777777777,115.29506069913019L529.3903333333334,108.6367930969688L536.1773888888889,109.59195834915708L542.9644444444444,107.0093655361839L549.7515000000001,106.63545790756402L556.5385555555556,107.71051212729098L563.3256111111111,102.97230731424919L570.1126666666667,110.2152140079572L576.8997222222223,110.97212242714359L583.6867777777778,108.33246693391693L590.4738333333333,109.59497270724916L597.2608888888889,106.8255319937573L604.0479444444445,105.1638675656619L610.835,105.28062554842167L617.6220555555556,101.63812610466266L624.4091111111111,100.75202523530616L631.1961666666667,98.05467865128837L637.9832222222223,96.80752291408318L644.7702777777778,95.87361941583666L651.5573333333334,92.09569393305604L658.344388888889,89.95268938112291L665.1314444444445,89.96631754822073L671.9185000000001,89.41760007799174L678.7055555555556,92.30592087832825L685.4926111111112,90.88322139424446L692.2796666666667,90.15335244152938L699.0667222222222,89.09667738122432L705.8537777777777,87.90577797455343L712.6408333333334,88.1193849142443L719.4278888888889,89.73259003224001L726.2149444444445,89.27736356840323L733.0020000000001,88.5710840573485L739.7890555555556,88.95171219667388L746.5761111111112,89.98448492622727L753.3631666666668,88.31471176382001L760.1502222222223,88.42663660735124L766.9372777777778,87.25625203475923L773.7243333333333,83.70772222193564L780.5113888888889,84.73429629852717L787.2984444444445,81.76140514744391L794.0855,83.81400752930267L800.8725555555556,86.83997070625766L807.6596111111112,86.55175396957351L814.4466666666667,85.76007023888701L821.2337222222224,85.65631221368065L828.0207777777779,85.90345029357417L834.8078333333334,87.66052483342669L841.5948888888889,86.61097491448116L848.3819444444445,86.35249717631933L855.169,86.07365979568696L861.9560555555556,86.4013603182485L868.7431111111111,84.98918893986895L875.5301666666667,85.62692706702246L882.3172222222223,83.96763461864566L889.1042777777778,86.74653690393994L895.8913333333334,85.13443557309554L902.678388888889,86.14721867971096L909.4654444444445,85.3935983272342L916.2525,85.49832048623603L923.0395555555556,86.42740894578351L929.8266111111111,84.2004222704319L936.6136666666667,85.02991632762509L943.4007222222223,85.83697355559947L950.1877777777778,87.62063879064182L956.9748333333334,88.50519577438519L963.761888888889,86.06588015762753L970.5489444444445,85.53043737126637L977.3360000000001,85.76603396857861L984.1230555555557,87.51618361888237L990.9101111111112,89.49441999275803L997.6971666666667,88.82506864969669L1004.4842222222222,84.83462224682158L1011.2712777777778,85.53418705119404L1018.0583333333334,88.36711347169192L1024.845388888889,86.4161423074055L1031.6324444444444,85.43120176611568L1038.4195,84.65459528405972L1045.2065555555555,84.80741718486081L1051.9936111111112,82.9809257384079L1058.7806666666668,80.77127423091922L1065.5677222222223,82.10614023841235L1072.3547777777778,80.98890735733315L1079.1418333333334,81.9892186387902L1085.9288888888889,85.3738451587445L1092.7159444444446,83.87767689322578L1099.5030000000002,84.40312546854867L1106.2900555555557,83.2952450791082L1113.0771111111112,82.50676610770887" style="fill: none;" fill="none"></path></g><g><path stroke="rgb(255, 112, 67)" stroke-width="2px" d="M183.25050000000002,385.94872990682256L190.03755555555557,353.8517253701153L196.82461111111112,327.12004207210845L203.61166666666668,307.75876774405765L210.39872222222223,292.3205860776821L217.1857777777778,274.6143445020616L223.97283333333334,256.5768411813614L230.7598888888889,244.95501852300387L237.54694444444445,235.58105930187028L244.33400000000003,228.1199415497502L251.12105555555556,218.85638159157097L257.9081111111111,212.0060151740105L264.6951666666667,208.23946327998527L271.4822222222222,201.7174935925019L278.2692777777778,194.12807526082236L285.0563333333333,187.83737365287507L291.8433888888889,184.0831763334736L298.63044444444444,178.4170011388642L305.4175,175.0374981209967L312.20455555555554,171.35346450038736L318.9916111111111,167.8704838986791L325.7786666666667,162.32662154058642L332.56572222222223,159.46490850001794L339.3527777777778,157.26308629738918L346.13983333333334,151.94254876843456L352.92688888888887,149.69959214918455L359.71394444444445,147.48525175932494L366.50100000000003,145.28808108910988L373.2880555555556,141.26308842289416L380.07511111111114,139.45407020140343L386.86216666666667,137.41929369036427L393.64922222222225,138.72332806030386L400.4362777777778,134.4559481414531L407.22333333333336,128.80505818787938L414.01038888888894,126.74766154415552L420.79744444444447,124.72545621616862L427.5845,125.06747594972357L434.3715555555556,123.77795222515887L441.15861111111116,119.04517742349285L447.9456666666667,117.11446251391531L454.73272222222226,114.23912450020515L461.5197777777778,110.87777964248133L468.3068333333334,110.29510092719241L475.0938888888889,111.78364959776013L481.8809444444445,108.39452175406544L488.66800000000006,106.2398624188142L495.4550555555556,103.53313037297332L502.2421111111111,103.58561670421578L509.0291666666667,100.78920351221888L515.8162222222222,99.29317769262L522.6032777777777,98.71872657875467L529.3903333333334,96.55612386667865L536.1773888888889,91.70352937309131L542.9644444444444,93.2155720052528L549.7515000000001,91.55751380921983L556.5385555555556,93.28956090655595L563.3256111111111,90.18797070531048L570.1126666666667,87.80183835645754L576.8997222222223,87.38009979277132L583.6867777777778,87.81383312229188L590.4738333333333,84.96338726059649L597.2608888888889,81.87959890947378L604.0479444444445,80.61507939074657L610.835,80.52295239262887L617.6220555555556,75.09467918230091L624.4091111111111,69.5350205948276L631.1961666666667,64.28030252416025L637.9832222222223,60.92545783154764L644.7702777777778,57.660212810915056L651.5573333333334,57.317016093438816L658.344388888889,57.63627629105886L665.1314444444445,56.59565385782085L671.9185000000001,56.65805686561001L678.7055555555556,58.02866809652043L685.4926111111112,55.35657723256562L692.2796666666667,55.005660919257835L699.0667222222222,53.179160836369746L705.8537777777777,54.08298282463347L712.6408333333334,55.45345897033647L719.4278888888889,53.58924615202963L726.2149444444445,52.28892846680579L733.0020000000001,50.76135402273984L739.7890555555556,51.92533051410986L746.5761111111112,48.765678817951475L753.3631666666668,49.21299807211904L760.1502222222223,47.70384109008986L766.9372777777778,48.979858933108915L773.7243333333333,48.12955144537556L780.5113888888889,46.22562226265811L787.2984444444445,46.77998206638533L794.0855,46.5470362112886L800.8725555555556,48.7705707247068L807.6596111111112,48.89273673691971L814.4466666666667,46.96631430625097L821.2337222222224,47.466794651980166L828.0207777777779,48.837631070242985L834.8078333333334,46.54947916315176L841.5948888888889,47.03490357188094L848.3819444444445,47.083760857679124L855.169,47.5574543374508L861.9560555555556,46.872113088915256L868.7431111111111,46.2185109803546L875.5301666666667,46.37175179929624L882.3172222222223,46.03950893698225L889.1042777777778,43.77983381639775L895.8913333333334,43.231987840819436L902.678388888889,43.246668489338305L909.4654444444445,43.41707511807587L916.2525,42.26698089025348L923.0395555555556,41.071937880067715L929.8266111111111,42.294026746753445L936.6136666666667,43.04750392273704L943.4007222222223,42.14622904747678L950.1877777777778,40.999486774401745L956.9748333333334,39.685272308024324L963.761888888889,42.0882286074186L970.5489444444445,43.34818029145668L977.3360000000001,41.43787665212323L984.1230555555557,41.16026093049496L990.9101111111112,41.59966884543694L997.6971666666667,42.69146444578795L1004.4842222222222,41.952797115920994L1011.2712777777778,41.509596718000715L1018.0583333333334,40.072137393996684L1024.845388888889,38.886465320342005L1031.6324444444444,40.27577498857234L1038.4195,42.402114605161444L1045.2065555555555,43.05174927258242L1051.9936111111112,42.63357097626261L1058.7806666666668,43.43302045468239L1065.5677222222223,44.094480135974166L1072.3547777777778,45.48110503576117L1079.1418333333334,42.6974397440922L1085.9288888888889,42.198779654342815L1092.7159444444446,42.97013181131842L1099.5030000000002,43.372367841663014L1106.2900555555557,41.2099918228077L1113.0771111111112,41.06391354213268" style="fill: none;" fill="none"></path></g></g></g></g><g opacity="0.2"><g><g><g><path stroke="rgb(0, 119, 187)" stroke-width="2px" d="M162.88933333333335,416.69364300370216L169.6763888888889,356.9830292591027L176.46344444444443,321.2494419642857L183.25050000000002,308.56479071293563L190.03755555555557,278.86417226280486L196.82461111111112,264.9420136341027L203.61166666666668,252.56673922709064L210.39872222222223,236.47890256132402L217.1857777777778,232.1475464871952L223.97283333333334,209.71736413240436L230.7598888888889,236.3241740124567L237.54694444444445,226.88805988005237L244.33400000000003,196.72337616341457L251.12105555555556,185.7402975559235L257.9081111111111,178.00579619407657L264.6951666666667,181.71831832613267L271.4822222222222,183.7293079410281L278.2692777777778,164.23832598754342L285.0563333333333,190.2263821789197L291.8433888888889,170.88996826750898L298.63044444444444,167.3320944309235L305.4175,159.4428645202092L312.20455555555554,176.1494548746518L318.9916111111111,153.71935277325773L325.7786666666667,160.989828995296L332.56572222222223,150.78023262534828L339.3527777777778,149.54264499459953L346.13983333333334,151.55363460949496L352.92688888888887,140.1065308621952L359.71394444444445,133.3001600333623L366.50100000000003,127.42191973754343L373.2880555555556,144.90191207613267L380.07511111111114,130.9797935741289L386.86216666666667,140.41590770653323L393.64922222222225,132.99078318902428L400.4362777777778,143.200379558972L407.22333333333336,132.37202950034828L414.01038888888894,129.43290935243883L420.79744444444447,126.95781434433808L427.5845,124.01869419642863L434.3715555555556,125.8749552624567L441.15861111111116,127.73129658188142L447.9456666666667,124.79217643397202L454.73272222222226,110.8699776785715L461.5197777777778,106.84799844878067L468.3068333333334,140.57063625540056L475.0938888888889,117.36697166306638L481.8809444444445,108.70433976820544L488.66800000000006,113.19034413780489L495.4550555555556,116.43884113005237L502.2421111111111,112.1074850559235L509.0291666666667,112.5715904491289L515.8162222222222,119.53268982682914L522.6032777777777,114.27320321968631L529.3903333333334,98.64939169372835L536.1773888888889,111.02470622743883L542.9644444444444,103.13547631672458L549.7515000000001,106.07459646463398L556.5385555555556,109.32309345688142L563.3256111111111,95.86500009468631L570.1126666666667,121.07957404851918L576.8997222222223,112.1074850559235L583.6867777777778,104.37298369407658L590.4738333333333,111.48873136724748L597.2608888888889,102.67137092351918L604.0479444444445,102.67137092351918L610.835,105.45576252256126L617.6220555555556,96.1743769390243L624.4091111111111,99.42287393127174L631.1961666666667,94.00865877526154L637.9832222222223,94.93678930827555L644.7702777777778,94.4727641684669L651.5573333333334,86.42880570888524L658.344388888889,86.73818255322327L665.1314444444445,89.98675979886741L671.9185000000001,88.59452387264804L678.7055555555556,96.63840207883295L685.4926111111112,88.74917216811866L692.2796666666667,89.0585490124567L699.0667222222222,87.51166479076666L705.8537777777777,86.11942886454725L712.6408333333334,88.43979532378067L719.4278888888889,92.15239770923347L726.2149444444445,88.59452387264804L733.0020000000001,87.51166479076666L739.7890555555556,89.52265440566205L746.5761111111112,91.53364402055745L753.3631666666668,85.81005202020926L760.1502222222223,88.59452387264804L766.9372777777778,85.50067517587122L773.7243333333333,78.38492750270032L780.5113888888889,86.27415741341461L787.2984444444445,77.30206842081894L794.0855,86.89291110209064L800.8725555555556,91.37891547169012L807.6596111111112,86.11942886454725L814.4466666666667,84.57254464285721L821.2337222222224,85.50067517587122L828.0207777777779,86.27415741341461L834.8078333333334,90.29613664320544L841.5948888888889,85.03665003606257L848.3819444444445,85.96478056907658L855.169,85.65540372473859L861.9560555555556,86.89291110209064L868.7431111111111,82.8709318722998L875.5301666666667,86.5835342577526L882.3172222222223,81.47869594608039L889.1042777777778,90.91489033188147L895.8913333333334,82.71628357682914L902.678388888889,87.66639333963398L909.4654444444445,84.26316779851918L916.2525,85.65540372473859L923.0395555555556,87.82104163510465L929.8266111111111,80.85994225740437L936.6136666666667,86.27415741341461L943.4007222222223,87.04755939756126L950.1877777777778,90.29613664320544L956.9748333333334,89.83203125000004L963.761888888889,82.40690673249115L970.5489444444445,84.72727319172458L977.3360000000001,86.11942886454725L984.1230555555557,90.14140809433808L990.9101111111112,92.4617745535715L997.6971666666667,87.82104163510465L1004.4842222222222,78.84895264250898L1011.2712777777778,86.5835342577526L1018.0583333333334,92.61650310243887L1024.845388888889,83.48968556097583L1031.6324444444444,83.95379095418119L1038.4195,83.48968556097583L1045.2065555555555,85.03665003606257L1051.9936111111112,80.24118856872839L1058.7806666666668,77.45679696968631L1065.5677222222223,84.10843924965185L1072.3547777777778,79.31305803571433L1079.1418333333334,83.48968556097583L1085.9288888888889,90.45078493867607L1092.7159444444446,81.63342449494776L1099.5030000000002,85.19129833153323L1106.2900555555557,81.63342449494776L1113.0771111111112,81.32404765060977" style="fill: none;" fill="none"></path></g><g><path stroke="rgb(255, 112, 67)" stroke-width="2px" d="M169.6763888888889,401.7036326783045L176.46344444444443,367.11249261243006L183.25050000000002,337.31865984201437L190.03755555555557,306.51487820063323L196.82461111111112,287.4266077918666L203.61166666666668,278.8924615851471L210.39872222222223,269.24732748099734L217.1857777777778,248.11279608947896L223.97283333333334,229.55592354706363L230.7598888888889,227.53594555173606L237.54694444444445,221.52673171247758L244.33400000000003,216.93142221655168L251.12105555555556,204.96339367117204L257.9081111111111,201.7315091320447L264.6951666666667,202.5899797167097L271.4822222222222,191.93489674159463L278.2692777777778,182.74419749634612L285.0563333333333,178.4014454398837L291.8433888888889,178.45192482641767L298.63044444444444,169.91777861969817L305.4175,169.96825800623216L312.20455555555554,165.82742349590578L318.9916111111111,162.64601834331245L325.7786666666667,154.0108331101282L332.56572222222223,155.1723405207907L339.3527777777778,153.96035372359418L346.13983333333334,143.96174353361133L352.92688888888887,146.33515748807366L359.71394444444445,144.1637413331441L366.50100000000003,141.99232517821454L373.2880555555556,135.22559952735904L380.07511111111114,136.74054289715636L386.86216666666667,134.36712894269402L393.64922222222225,140.67937960795L400.4362777777778,128.05487827743806L407.22333333333336,120.32872326884956L414.01038888888894,123.66156658104495L420.79744444444447,121.69214822564811L427.5845,125.58050554990773L434.3715555555556,121.84366663864688L441.15861111111116,111.94601522173204L447.9456666666667,114.21839014972963L454.73272222222226,109.92611747980122L461.5197777777778,105.83576235600886L468.3068333333334,109.42108285427098L475.0938888888889,114.01647260359363L481.8809444444445,103.3108299885478L488.66800000000006,103.007873415947L495.4550555555556,99.4730323042189L502.2421111111111,103.66434620107927L509.0291666666667,96.59458372422633L515.8162222222222,97.04913896322255L522.6032777777777,97.85704990795688L529.3903333333334,93.31221979856495L536.1773888888889,84.42463763271064L542.9644444444444,95.48363595349454L549.7515000000001,89.07042651517057L556.5385555555556,95.88763155256004L563.3256111111111,85.53558540344243L570.1126666666667,84.2226398331779L576.8997222222223,86.74749194724225L583.6867777777778,88.46443311657232L590.4738333333333,80.68771846805305L597.2608888888889,77.25391638278965L604.0479444444445,78.71830011265625L610.835,80.3847618954523L617.6220555555556,66.95226936680936L624.4091111111111,61.19553271361765L631.1961666666667,56.398225418159L637.9832222222223,55.89319079262876L644.7702777777778,52.762345279966155L651.5573333333334,56.8022210172245L658.344388888889,58.11516658748907L665.1314444444445,55.034720207963744L671.9185000000001,56.75166137729377L678.7055555555556,60.08458494288587L685.4926111111112,51.34844093663358L692.2796666666667,54.47928644929618L699.0667222222222,50.43941071203784L705.8537777777777,55.43871580702924L712.6408333333334,57.509173188890784L719.4278888888889,50.792926924569315L726.2149444444445,50.3384519389698L733.0020000000001,48.469992356641L739.7890555555556,53.67129525116519L746.5761111111112,44.026201273713866L753.3631666666668,49.88397695337028L760.1502222222223,45.4401056170464L766.9372777777778,50.89388569763736L773.7243333333333,46.85409021377568L780.5113888888889,43.3697284885816L787.2984444444445,47.61152177197599L794.0855,46.19761742864341L800.8725555555556,52.10587249483389L807.6596111111112,49.07598575523929L814.4466666666667,44.076680660247845L821.2337222222224,48.21751517057423L828.0207777777779,50.89388569763736L834.8078333333334,43.11725130251483L841.5948888888889,47.76304018497471L848.3819444444445,47.15704678637647L855.169,48.26799455710825L861.9560555555556,45.84410121611194L868.7431111111111,45.23810781751365L875.5301666666667,46.60161302770895L882.3172222222223,45.541144643511146L889.1042777777778,40.39032113552098L895.8913333333334,42.41021887745184L902.678388888889,43.26868946211685L909.4654444444445,43.67268506118235L916.2525,40.54183954851975L923.0395555555556,39.279373364789194L929.8266111111111,44.12716004678187L936.6136666666667,44.17771968671259L943.4007222222223,40.794316734586516L950.1877777777778,39.279373364789194L956.9748333333334,37.71395060845789L963.761888888889,45.692663056509915L970.5489444444445,45.23810781751365L977.3360000000001,38.572421193122906L984.1230555555557,40.743837348052494L990.9101111111112,42.258780717849774L997.6971666666667,44.329157846314615L1004.4842222222222,40.844796121120496L1011.2712777777778,40.844796121120496L1018.0583333333334,37.91594840799064L1024.845388888889,37.10795720985965L1031.6324444444444,42.35973949091782L1038.4195,45.59162403004517L1045.2065555555555,44.026201273713866L1051.9936111111112,42.00630353178305L1058.7806666666668,44.63219467231211L1065.5677222222223,45.08666965791163L1072.3547777777778,47.561042385441965L1079.1418333333334,38.52194180658893L1085.9288888888889,41.45078951971878L1092.7159444444446,44.12716004678187L1099.5030000000002,43.975721887179844L1106.2900555555557,37.96642779452466L1113.0771111111112,40.844796121120496" style="fill: none;" fill="none"></path></g></g></g></g></g></g><g transform="translate(50, 377)" clip-path="url(#clip_1)"><clipPath id="clip_1"><rect width="1221" height="22"></rect></clipPath><g><g><line x1="0" y1="0" x2="0" y2="5" style="visibility: inherit;" fill="rgb(0, 0, 0)" stroke="rgb(204, 204, 204)" stroke-width="1px"></line><line x1="135.7411111111111" y1="0" x2="135.7411111111111" y2="5" style="visibility: inherit;" fill="rgb(0, 0, 0)" stroke="rgb(204, 204, 204)" stroke-width="1px"></line><line x1="271.4822222222222" y1="0" x2="271.4822222222222" y2="5" style="visibility: inherit;" fill="rgb(0, 0, 0)" stroke="rgb(204, 204, 204)" stroke-width="1px"></line><line x1="407.22333333333336" y1="0" x2="407.22333333333336" y2="5" style="visibility: inherit;" fill="rgb(0, 0, 0)" stroke="rgb(204, 204, 204)" stroke-width="1px"></line><line x1="542.9644444444444" y1="0" x2="542.9644444444444" y2="5" style="visibility: inherit;" fill="rgb(0, 0, 0)" stroke="rgb(204, 204, 204)" stroke-width="1px"></line><line x1="678.7055555555556" y1="0" x2="678.7055555555556" y2="5" style="visibility: inherit;" fill="rgb(0, 0, 0)" stroke="rgb(204, 204, 204)" stroke-width="1px"></line><line x1="814.4466666666667" y1="0" x2="814.4466666666667" y2="5" style="visibility: inherit;" fill="rgb(0, 0, 0)" stroke="rgb(204, 204, 204)" stroke-width="1px"></line><line x1="950.1877777777778" y1="0" x2="950.1877777777778" y2="5" style="visibility: inherit;" fill="rgb(0, 0, 0)" stroke="rgb(204, 204, 204)" stroke-width="1px"></line><line x1="1085.9288888888889" y1="0" x2="1085.9288888888889" y2="5" style="visibility: inherit;" fill="rgb(0, 0, 0)" stroke="rgb(204, 204, 204)" stroke-width="1px"></line><line x1="1221.67" y1="0" x2="1221.67" y2="5" style="visibility: inherit;" fill="rgb(0, 0, 0)" stroke="rgb(204, 204, 204)" stroke-width="1px"></line></g><g transform="translate(0, 8)"><text x="0" y="0" dx="0em" dy="0.95em" style="text-anchor: middle; visibility: hidden; font-family: Roboto, sans-serif; font-size: 12px; font-weight: 200;" fill="rgb(33, 33, 33)" stroke="none" stroke-width="1px">-20</text><text x="135.7411111111111" y="0" dx="0em" dy="0.95em" style="text-anchor: middle; visibility: inherit; font-family: Roboto, sans-serif; font-size: 12px; font-weight: 200;" fill="rgb(33, 33, 33)" stroke="none" stroke-width="1px">0</text><text x="271.4822222222222" y="0" dx="0em" dy="0.95em" style="text-anchor: middle; visibility: inherit; font-family: Roboto, sans-serif; font-size: 12px; font-weight: 200;" fill="rgb(33, 33, 33)" stroke="none" stroke-width="1px">20</text><text x="407.22333333333336" y="0" dx="0em" dy="0.95em" style="text-anchor: middle; visibility: inherit; font-family: Roboto, sans-serif; font-size: 12px; font-weight: 200;" fill="rgb(33, 33, 33)" stroke="none" stroke-width="1px">40</text><text x="542.9644444444444" y="0" dx="0em" dy="0.95em" style="text-anchor: middle; visibility: inherit; font-family: Roboto, sans-serif; font-size: 12px; font-weight: 200;" fill="rgb(33, 33, 33)" stroke="none" stroke-width="1px">60</text><text x="678.7055555555556" y="0" dx="0em" dy="0.95em" style="text-anchor: middle; visibility: inherit; font-family: Roboto, sans-serif; font-size: 12px; font-weight: 200;" fill="rgb(33, 33, 33)" stroke="none" stroke-width="1px">80</text><text x="814.4466666666667" y="0" dx="0em" dy="0.95em" style="text-anchor: middle; visibility: inherit; font-family: Roboto, sans-serif; font-size: 12px; font-weight: 200;" fill="rgb(33, 33, 33)" stroke="none" stroke-width="1px">100</text><text x="950.1877777777778" y="0" dx="0em" dy="0.95em" style="text-anchor: middle; visibility: inherit; font-family: Roboto, sans-serif; font-size: 12px; font-weight: 200;" fill="rgb(33, 33, 33)" stroke="none" stroke-width="1px">120</text><text x="1085.9288888888889" y="0" dx="0em" dy="0.95em" style="text-anchor: middle; visibility: inherit; font-family: Roboto, sans-serif; font-size: 12px; font-weight: 200;" fill="rgb(33, 33, 33)" stroke="none" stroke-width="1px">140</text><text x="1221.67" y="0" dx="0em" dy="0.95em" style="text-anchor: middle; visibility: hidden; font-family: Roboto, sans-serif; font-size: 12px; font-weight: 200;" fill="rgb(33, 33, 33)" stroke="none" stroke-width="1px">160</text></g><line x1="0" y1="0" x2="1221.67" y2="0" fill="rgb(0, 0, 0)" stroke="rgb(204, 204, 204)" stroke-width="1px"></line></g></g></g></g></svg>